<?xml version="1.0" encoding="UTF-8"?>
<svg id="Layer_1" data-name="Layer 1" xmlns="http://www.w3.org/2000/svg" xmlns:xlink="http://www.w3.org/1999/xlink" viewBox="0 0 605.25 605.25">
  <defs>
    <style>
      .cls-1 {
        fill: url(#linear-gradient-2);
      }

      .cls-2 {
        fill: #7fd349;
      }

      .cls-3 {
        fill: #03968a;
      }

      .cls-4 {
        fill: url(#linear-gradient);
      }
    </style>
    <linearGradient id="linear-gradient" x1="104.74" y1="362.57" x2="255.04" y2="362.57" gradientUnits="userSpaceOnUse">
      <stop offset="0" stop-color="#03968a" stop-opacity=".5"/>
      <stop offset="1" stop-color="#000" stop-opacity="0"/>
    </linearGradient>
    <linearGradient id="linear-gradient-2" x1="3904.77" y1="771.16" x2="4054.63" y2="771.16" gradientTransform="translate(4166.63 1069.55) rotate(-180)" xlink:href="#linear-gradient"/>
  </defs>
  <g>
    <path class="cls-3" d="m350.13,317.95c1.3,13.54-10.19,35.24-33.37,35.24-27.27,0-49.15-21.14-49.15-46.91s21.88-47.11,49.15-47.11c15.39,0,29.29,6.87,38.18,17.62,0,0-20.2,16.13-24.1,38.94-8.53-22.26-13.54-48.77-28.01-48.77-6.85,0-20.76,8.15-20.76,18.72,0,31.34,54.7,48.03,68.05,32.27Z"/>
    <path class="cls-3" d="m451.68,352.21h-40.92c6.3-3.08,8.53-6.44,8.53-12.03v-26.02c0-11.05-8.19-15.95-17.23-15.95l-14.5,15.1v26.86c0,5.59,2.06,8.95,8.53,12.03h-40.92c6.48-3.08,8.53-6.44,8.53-12.03v-63.79c0-5.59-2.04-8.95-8.53-12.03,0,0,25.25,2.65,32.4-4.2v48.26l23.72-24.62c18.07,0,31.88,11.33,31.88,23.5v32.87c0,5.59,2.06,8.95,8.53,12.03Z"/>
    <path class="cls-3" d="m460.49,338.98v-41.84c0-5.83-2.16-9.33-9.01-12.53,0,0,26.68,2.78,34.24-4.37v58.74c0,5.83,2.17,9.33,9.03,12.53h-43.26c6.85-3.2,9.01-6.71,9.01-12.53Z"/>
  </g>
  <g>
    <path class="cls-3" d="m314.33,388.35c.68,7.08-5.33,18.42-17.44,18.42-14.25,0-25.68-11.05-25.68-24.52s11.43-24.62,25.68-24.62c8.04,0,15.31,3.59,19.96,9.21,0,0-10.56,8.43-12.59,20.35-4.46-11.63-7.08-25.49-14.64-25.49-3.58,0-10.85,4.26-10.85,9.78,0,16.38,28.59,25.1,35.56,16.86Z"/>
    <path class="cls-3" d="m370.08,397.26l-7.65,8.62c-8.44,0-11.83-6-12.5-12.5v-.19l-10.08,12.69c-13.18,0-21.8-3.87-21.8-11.82,0-11.24,16.86-19.77,29.94-19.19-1.07-8.04-5.82-14.24-10.86-14.24-4.74,0-6.39,11.34-2.13,13.56-15.99,0-16.86-5.71-12.3-10.27,2.9-3.01,8.14-5.43,12.98-5.43,13.47,0,24.52,2.9,25.87,15.89.29,2.81,1.55,15.02,1.55,15.02.77,7.46,2.52,9.49,6.98,7.84Zm-20.55-7.17c-.39-3.87-.96-10.08-1.36-13.07-24.03.77-15.89,20.06-3.97,19.67l5.33-6.6Z"/>
    <path class="cls-3" d="m412.65,362.58c-6.79,8.43-8.33,15.99-8.33,15.99-3.2-6.79-9.98-11.73-16.48-4.36l-1.55,1.85v21.51c0,3.87,1.17,6.2,4.85,8.33h-23.26c3.68-2.13,4.84-4.46,4.84-8.33v-27.81c0-3.87-1.16-6.2-4.84-8.33,0,0,14.35,1.85,18.41-2.9v14.24l2.71-3.1c3.3-3.87,10.08-11.14,15.7-11.14,4.65,0,7.95,4.07,7.95,4.07Z"/>
    <path class="cls-3" d="m451.91,381.37c3.01,14.05-5.33,25.49-17.44,25.49-14.25,0-25.68-11.05-25.68-24.61s11.43-24.71,25.68-24.71c10.17,0,15.6,5.52,17.53,15.6h-35.46c1.25,20.35,26.16,25.68,35.37,8.24Zm-35.47-10.37h18.61c-2.23-5.23-5.33-9.98-10.37-8.81-3.68.77-7.95,4.55-8.24,8.81Z"/>
    <path class="cls-3" d="m487.41,382.25c14.15,9.2,9.59,24.52-12.4,24.52-9.5,0-21.23-3.59-21.23-11.43,0-4.66,4.17-8.82,9.78-10.66-3,10.66,14.35,24.32,23.36,17.73,4.17-3-13.37-13.66-24.61-21.03-14.15-9.21-8.53-23.74,12.3-23.74,9.11,0,17.35,4.27,20.84,8.44,0,0-8.92,4.07-11.34,10.56-2.13-9.11-11.34-18.99-18.02-15.79-7.17,3.49,10.08,13.95,21.32,21.42Z"/>
  </g>
  <g>
    <g>
      <path class="cls-2" d="m247.64,409.55c-6.38-14.75-17.02-24.92-24.17-31.75-2.64-2.52-4.07-3.65-4.02-3.72.2-.23,23.33,11.28,32.76,31.79,5.69,12.37,5.69,26.48,4.47,36.86,2.34-3.77,13.56-46.68-6.88-75.23,0,0-17.4-24.31-76.37-29.49-1.19-.1-4.11-.21-7.56.66-.93.23-7.97,2.01-8.1,4.59-.15,3.12,9.88,6.03,13.78,7.16,8.75,2.54,11.71,1.69,19.84,4.41,5.2,1.74,11.51,3.84,11.57,6.61.08,3.35-8.92,7.57-17.08,8.27-18.94,1.62-40.41-15.34-51.25-32.51-2.23-3.53-7.3-12.28-17.08-20.94-2.57-2.27-9.91-8.77-12.12-7.16-2.51,1.83,2.9,13.23,5.51,18.74,7.08,14.92,20.85,42.94,50.7,57.86h0c35.8,18.44,57.78,5.47,78.25,28.66,7.24,8.2,11.36,15.61,13.6,20.59-.61-8.43-2.15-16.84-5.85-25.39Z"/>
      <path class="cls-4" d="m247.64,409.55c-6.38-14.75-17.02-24.92-24.17-31.75-2.64-2.52-4.07-3.65-4.02-3.72.2-.23,23.33,11.28,32.76,31.79,1.18,2.56,2.1,5.2,2.83,7.86-.42-10.48-3.89-32.34-17.91-47.33-24.85-26.58-72.87-20.9-73.22-19.03-.14.73,6.62,2.65,8.52,3.19,8.06,2.29,10.73,1.4,17.03,3.19.58.17,14.05,4.1,13.84,8.52-.17,3.7-9.86,5.96-11.71,6.39-7.45,1.73-13.82.71-17.03,0-16.18-3.56-26.6-15.39-30.87-20.23-2.95-3.35-6.73-8.3-8.52-10.65-5.05-6.62-6.03-8.5-8.52-11.71-7.28-9.42-18.65-18.94-21.29-17.03-2.15,1.55,1.8,10.43,4.26,15.97,3.79,8.53,9.22,20.44,21.15,33.12,9.81,10.42,26.66,23.78,49.05,30.31,25.94,7.57,33.39-.96,50.7,9.92,8.1,5.09,15.27,12.49,19.62,17.95-.7-2.25-1.51-4.5-2.49-6.77Z"/>
    </g>
    <g>
      <path class="cls-2" d="m119.37,251.53c6.36,14.71,16.97,24.85,24.1,31.66,2.63,2.51,4.06,3.64,4.01,3.71-.2.23-23.26-11.25-32.66-31.7-5.67-12.33-5.68-26.4-4.46-36.75-2.34,3.76-13.52,46.55,6.86,75.01,0,0,17.35,24.24,76.15,29.41,1.19.1,4.1.21,7.54-.65.93-.23,7.95-2,8.08-4.58.15-3.11-9.85-6.01-13.74-7.14-8.72-2.53-11.67-1.69-19.78-4.4-5.18-1.73-11.48-3.83-11.54-6.59-.08-3.34,8.9-7.54,17.03-8.24,18.88-1.62,40.29,15.29,51.1,32.42,2.22,3.52,7.27,12.25,17.03,20.88,2.56,2.27,9.89,8.75,12.09,7.14,2.51-1.83-2.89-13.2-5.49-18.68-7.06-14.88-20.78-42.81-50.55-57.7h0c-35.7-18.38-57.61-5.45-78.03-28.57-7.22-8.18-11.33-15.57-13.56-20.53.6,8.4,2.15,16.8,5.83,25.32Z"/>
      <path class="cls-1" d="m119.37,251.53c6.36,14.71,16.97,24.85,24.1,31.66,2.63,2.51,4.06,3.64,4.01,3.71-.2.23-23.26-11.25-32.66-31.7-1.17-2.55-2.09-5.18-2.82-7.83.42,10.45,3.88,32.24,17.86,47.19,24.78,26.5,72.66,20.84,73,18.97.14-.73-6.6-2.65-8.49-3.18-8.04-2.29-10.7-1.39-16.98-3.18-.58-.17-14.01-4.09-13.8-8.49.17-3.69,9.84-5.94,11.68-6.37,7.43-1.73,13.77-.71,16.98,0,16.13,3.55,26.53,15.34,30.78,20.17,2.94,3.34,6.71,8.28,8.49,10.62,5.04,6.6,6.01,8.47,8.49,11.68,7.26,9.39,18.59,18.88,21.23,16.98,2.15-1.54-1.79-10.4-4.25-15.92-3.78-8.51-9.19-20.38-21.09-33.02-9.79-10.39-26.58-23.71-48.9-30.22-25.87-7.54-33.29.96-50.55-9.89-8.08-5.08-15.22-12.45-19.56-17.9.7,2.24,1.51,4.49,2.48,6.75Z"/>
    </g>
  </g>
</svg>