<svg id="Layer_1" data-name="Layer 1" xmlns="http://www.w3.org/2000/svg" viewBox="0 0 1188.96 1098.48"><defs><style>.cls-1{fill:#1e1100;}.cls-2{fill:#e7017d;}</style></defs><path class="cls-1" d="M357.16,469.72q6.27,8.11,17.36,12.13,14.78,5.14,27-4.18a37,37,0,0,0,6.43-6,53.47,53.47,0,0,0,5-7.15,23.61,23.61,0,0,0,2.89-6.92,12.07,12.07,0,0,0,.16-7.07,7.64,7.64,0,0,0-3-4.26,5.85,5.85,0,0,0-4.9-.88,5.09,5.09,0,0,0-2.9,1.53,10.72,10.72,0,0,0-1.92,3,69.4,69.4,0,0,1-3.62,7.15,26.36,26.36,0,0,1-5.22,6.35,12,12,0,0,1-5.15,3,10.36,10.36,0,0,1-5.14.16,12.29,12.29,0,0,1-4.5-2.08,10.32,10.32,0,0,1-3.21-3.78,59.31,59.31,0,0,1-5.55-14.06,74.33,74.33,0,0,1-2.17-15v-1.77a66.74,66.74,0,0,1,1.37-10,65.26,65.26,0,0,1,2.81-9.49,28.51,28.51,0,0,1,5.31-9.64q5.13-7.06,14.3-6.59a10.71,10.71,0,0,1,4.5,1.45,9.45,9.45,0,0,1,3.05,3.38,3.61,3.61,0,0,0,.64,1.28,5.08,5.08,0,0,0,5.63,3.05c2.36-.1,4-1.39,4.82-3.85a9.46,9.46,0,0,0,0-6.43,20.8,20.8,0,0,0-5.22-8.44,24.07,24.07,0,0,0-8.12-5.06,29.58,29.58,0,0,0-19.93-.16,35.25,35.25,0,0,0-11,6.27,46.41,46.41,0,0,0-8.43,9.48,74.12,74.12,0,0,0-11.25,26.6,66.1,66.1,0,0,0,1,28.84A50.84,50.84,0,0,0,357.16,469.72Zm46.45-16.47c.53-.86,1.07-1.77,1.6-2.74a11.76,11.76,0,0,1,1.93-2.57q2.42-2.9,5.95.64a5.66,5.66,0,0,0-3.38.33,7.89,7.89,0,0,0-2.24,1.68,24.07,24.07,0,0,0-1.85,2.25,12.57,12.57,0,0,1-2,2.17,5.86,5.86,0,0,0-.08-1A1,1,0,0,1,403.61,453.25Zm-1.21-56.82a11.31,11.31,0,0,0,1.85,1.77,5.47,5.47,0,0,0,2.17,1,5.66,5.66,0,0,0,3-.41,3.84,3.84,0,0,1-2.33,1.77,4,4,0,0,1-2.65-.24,6.25,6.25,0,0,1-2.41-2,7.69,7.69,0,0,1-1.45-3.69A14.59,14.59,0,0,1,402.4,396.43ZM368,387.92a23.42,23.42,0,0,1,3.94-3.14,24.72,24.72,0,0,1,4.58-2.33,9.26,9.26,0,0,1,4.09-.72q-3.86,2.41-7.47,4.74t-7.31,4.58A8.41,8.41,0,0,1,368,387.92ZM362.63,469a46.87,46.87,0,0,0,4.17,3.69,31.74,31.74,0,0,0,4.67,3.06q2.4,1.28,5.14,3.05a13.46,13.46,0,0,1-5.47-1.29,25.5,25.5,0,0,1-5.46-3.29,26.56,26.56,0,0,1-4.5-4.42,16.24,16.24,0,0,1-2.73-4.66Q360.7,467.06,362.63,469Z"/><path class="cls-1" d="M420.16,450.35c-.11,2.47-.16,4.93-.16,7.4s-.06,4.92-.16,7.39a11.28,11.28,0,0,0,2.41,7.23,10,10,0,0,0,3.78,3.3,9.38,9.38,0,0,0,4.42,1,9.67,9.67,0,0,0,4.42-1.29,10.07,10.07,0,0,0,3.61-3.45,12.93,12.93,0,0,0,1.93-7.07,14.47,14.47,0,0,1,.08-1.61c.05-.54.08-1.18.08-1.93a11.3,11.3,0,0,0,1.69,1.21,11.29,11.29,0,0,1,1.36.88q7.39,5.79,14.63,11.49t14.62,11.33a43.66,43.66,0,0,0,5.39,3.46q2.81,1.53,5.54,3.13a10.74,10.74,0,0,0,3,1.13l3.13.64a8.45,8.45,0,0,0,5.7-1.05,7.76,7.76,0,0,0,3.62-4.25,8.28,8.28,0,0,0-3.21-9.81c-.65-.43-1.26-.88-1.85-1.36s-1.15-1-1.69-1.53q-3.86-3.21-7.55-6.35t-7.72-6q-5.77-4.17-11.65-8t-11.81-7.72c-.43-.32-.83-.64-1.21-1a5.58,5.58,0,0,0-1.2-.8c.32-.54.53-.81.64-.81s.64-.26,1.29-.48a67.89,67.89,0,0,0,14.94-6.11,57.49,57.49,0,0,0,12.7-9.64,64.74,64.74,0,0,0,7-7.87,37.21,37.21,0,0,0,5.06-9.32,35.14,35.14,0,0,0,2.09-17A31.58,31.58,0,0,0,488,380a33.08,33.08,0,0,0-8.28-7.31,42.15,42.15,0,0,0-9.88-4.42,57.74,57.74,0,0,0-20.89-2.49,84.7,84.7,0,0,0-20.57,4.1,30.71,30.71,0,0,0-3.86,1.76q-4,2.75-2.89,7.24a6,6,0,0,0,5.62,5,5,5,0,0,0,1.53.08c.48,0,1-.14,1.52-.24a68.07,68.07,0,0,1,11.25-1.61,46.64,46.64,0,0,1,11.42.8,63.94,63.94,0,0,1,7.39,2,27.32,27.32,0,0,1,6.75,3.46q5.94,4.17,6.51,8.6a16.74,16.74,0,0,1-1.69,9.24,24.26,24.26,0,0,1-6.75,8.51,57,57,0,0,1-10.61,7.08,83.51,83.51,0,0,1-11.89,5,4,4,0,0,1-1.37.4,11.55,11.55,0,0,0-1.84.4c-.11-1.39-.19-2.65-.25-3.78s-.13-2.27-.24-3.45c-.21-3.54-.45-7.07-.72-10.61s-.62-7-1-10.44c-.11-1.5-.27-3-.49-4.42a20,20,0,0,0-1.12-4.26,5.32,5.32,0,0,0-2.17-3.06,7,7,0,0,0-3.78-1q-4,0-5.78,4c-.22.64-.43,1.34-.65,2.09a18.06,18.06,0,0,0-.48,2.25c-.21,1.82-.35,3.61-.4,5.38s-.14,3.56-.24,5.38q-.64,9.81-1,19.93a15.78,15.78,0,0,1-.56,3.14,5.6,5.6,0,0,1-2,2.65,8.9,8.9,0,0,0-3.53,6.83,8.58,8.58,0,0,0,3.05,7A6.28,6.28,0,0,1,420.16,450.35Zm58.5,34.88a44,44,0,0,0,4.34,2.33,29.1,29.1,0,0,0,4.66,1.69,18.1,18.1,0,0,0,4.42.4,7,7,0,0,0,4.26-1.85c0,1.71-.59,2.84-1.77,3.37a10.74,10.74,0,0,1-3.86.81,20.57,20.57,0,0,1-6-1.53,22.75,22.75,0,0,1-5.39-3.29,2.31,2.31,0,0,1-.48-.73,2.16,2.16,0,0,0-.48-.72C478.34,485.6,478.44,485.44,478.66,485.23Zm-54-105.43a5.17,5.17,0,0,1-1.13-3.54,4.24,4.24,0,0,1,1.93-3.05q-1.12,3.54.57,5.22a13.14,13.14,0,0,0,4.42,2.82Q427.23,383.17,424.66,379.8Zm46.12,6.43a5.3,5.3,0,0,0,1.53.08,1,1,0,0,1,.89.24,9.19,9.19,0,0,1,4.5,4.5,15.12,15.12,0,0,1,1.44,8.2,17,17,0,0,1-3.05,7.71,5,5,0,0,1-1.29,1.13c-.11-.11-.19-.17-.24-.17s-.13-.05-.24-.16c.21-.53.37-1,.48-1.36s.27-.83.48-1.37a18.93,18.93,0,0,0,1.29-9.16,12.5,12.5,0,0,0-1.69-5.14A18.19,18.19,0,0,0,470.78,386.23Zm-44.19,3.86a2.78,2.78,0,0,1,1.69-1.45,7.1,7.1,0,0,1,2.49.16c-.54.54-1.13,1.07-1.77,1.61a7.17,7.17,0,0,0-1.61,1.93,7.5,7.5,0,0,0-1,2,20.9,20.9,0,0,1-.81,2.17.32.32,0,0,1-.24-.08.66.66,0,0,0-.4-.08A6.56,6.56,0,0,1,426.59,390.09Zm-3.86,70.07c0,.1.32-.27,1-1.13a19.76,19.76,0,0,0,2.25,9,6.58,6.58,0,0,0,3,3c1.23.58,2.54,1.15,3.94,1.68a2.53,2.53,0,0,1-1.53,1.21,2.49,2.49,0,0,1-1.37-.24c-.86-.43-1.68-.83-2.49-1.21a5.66,5.66,0,0,1-2-1.53A13.07,13.07,0,0,1,422.73,460.16Zm-4.66-22.34a9,9,0,0,1,.64-3.38,4.44,4.44,0,0,1,2.74-2.41,16.11,16.11,0,0,1-.89,3,7.1,7.1,0,0,0-.56,2.66,8.7,8.7,0,0,0,.56,3c.38,1,.73,2.12,1.05,3.29A6,6,0,0,1,418.07,437.82Z"/><path class="cls-1" d="M499.07,468.67q1,6.43,4.26,10.05t9.56,4.9a46.94,46.94,0,0,0,15.59.64q6.59-1,12.94-2a114.5,114.5,0,0,1,13.1-1.36,10.71,10.71,0,0,0,5.94-1.77,6.42,6.42,0,0,0,2.36-1.94c0,.43,0,.87,0,1.3a7.18,7.18,0,0,0,1.69,3.93,5.11,5.11,0,0,0,3.62,1.69q5,.48,6.43-4.66a8.94,8.94,0,0,0,.48-1.69c.1-.58.21-1.15.32-1.68.1-1.5,1-2.41,2.73-2.73l10.69-2.26q5.38-1.11,10.69-2.25,4.17-.79,8.43-1.44a59.54,59.54,0,0,1,8.92-.64c.33,1.39.65,2.73,1,4l1,3.86c.22.86.43,1.72.64,2.57a24.62,24.62,0,0,0,.81,2.57q1.61,4,6.27,4t6.26-4a13.67,13.67,0,0,0,.73-2.73c.16-1,.29-1.87.4-2.73.07-1.52.12-3,.15-4.54a5.94,5.94,0,0,0,4.19,3.25q4.65,1.29,7.71-3.53c.43-.65.83-1.31,1.21-2a10.53,10.53,0,0,0,.88-2.33q3.21-8.52,6.19-16.88t6.18-16.87q.33-.81.57-1.53c.16-.48.34-1,.56-1.52h.64c.11.43.21.83.32,1.2s.22.78.32,1.21c.65,3.43,1.31,6.83,2,10.2s1.31,6.78,1.85,10.21,1.23,6.61,1.77,9.88,1.12,6.51,1.77,9.72c.42,1.83.91,3.65,1.44,5.47a19,19,0,0,0,2.41,5.14,13.43,13.43,0,0,0,2.5,2.73,8.18,8.18,0,0,0,3.13,1.61,9.84,9.84,0,0,0,6.19-.4,9.45,9.45,0,0,0,4.74-4.42,49.32,49.32,0,0,0,3.69-8.84q1.77-5.79,3.54-11.49c1.18-3.8,2.35-7.64,3.54-11.49l10.12-32.31a13.4,13.4,0,0,1,.4-1.28,3.15,3.15,0,0,1,1.05-1.29c.1.54.18,1,.24,1.45a11.13,11.13,0,0,1,.08,1.28q.32,6.43.64,12.78t.8,12.62q.64,7.23,1.37,14.3t1.53,14.3a16.74,16.74,0,0,0,1.93,5.95,13.05,13.05,0,0,0,4.42,4.5,9.58,9.58,0,0,0,6,1.29,11,11,0,0,0,6-2.25,12.26,12.26,0,0,0,3.7-5.15,12.89,12.89,0,0,0,1-6.91l-.48-4.82q-.81-8.19-1.45-16.23t-1.45-16.23q-.79-6.6-1.84-12.94t-1.85-12.94q-.64-4.33-1.45-8.6a59.68,59.68,0,0,0-2.25-8.43,31.83,31.83,0,0,0-1.93-4.34A16.57,16.57,0,0,0,725,380a9.28,9.28,0,0,0-9.48-2.41,12.59,12.59,0,0,0-6.11,4.18,42.13,42.13,0,0,0-5.14,7.79,73.72,73.72,0,0,0-3.7,8.6q-3.69,10.77-7.31,21.38T686,440.71a9.57,9.57,0,0,1-1.13,2.57,3.62,3.62,0,0,1-.64-1.2c-.11-.38-.22-.78-.32-1.21q-.81-4.65-1.53-9.32c-.48-3.11-1-6.21-1.53-9.32a149.45,149.45,0,0,0-6.42-24,20.25,20.25,0,0,0-2.58-5q-3.52-5.46-10.28-4.66a10.52,10.52,0,0,0-5.06,2.09,14.76,14.76,0,0,0-3.46,4,77.77,77.77,0,0,0-4,7.87q-1.77,4-3.21,8.2-4,11.25-6.91,22.74-2.83,11.25-5,22.56c0-.66-.06-1.33-.1-2a177.21,177.21,0,0,0-2.41-19.85q-1.94-10.61-4.5-21.85a88.45,88.45,0,0,0-7.56-20.9,31.25,31.25,0,0,0-4.66-6.91,27,27,0,0,0-6.59-5.3,13.21,13.21,0,0,0-10.28-1.77,16.07,16.07,0,0,0-6,2.73,32.26,32.26,0,0,0-4.82,4.5,63.55,63.55,0,0,0-11.81,18.81,123.38,123.38,0,0,0-6.59,21.69A201.7,201.7,0,0,0,565.2,448q-1,11.13-2.1,21.42a6.58,6.58,0,0,0-2.8-2.53,12.13,12.13,0,0,0-5-1.45c-1.72-.21-3.4-.37-5.06-.48s-3.35-.16-5.07-.16q-6.11-.17-12.13-.08t-12.13.08a2.79,2.79,0,0,1-1.93-.48,4,4,0,0,1-.81-1.77,6.3,6.3,0,0,1-.24-2c.06-.48.62-1,1.69-1.53a37.94,37.94,0,0,1,6.59-2.57q3.38-1,6.91-1.61c2-.32,4.07-.56,6.11-.72s4.07-.29,6.1-.4a12,12,0,0,0,5.95-2.17,8.57,8.57,0,0,0,3.38-4.74,8.73,8.73,0,0,0-.32-5.71,9.89,9.89,0,0,0-3.86-4.42,8.94,8.94,0,0,0-3.78-1.36,13.66,13.66,0,0,0-3.94.08q-6.25.79-12.29,2a34.6,34.6,0,0,0-11.65,4.75,2.67,2.67,0,0,1-1,.4,6.54,6.54,0,0,0-1.28.4q-.81-12-1.53-23.95t-1.53-24.26l2.17-.33a15.28,15.28,0,0,1,2.17-.16c2.36-.1,4.69-.16,7-.16s4.64-.05,7-.16H541a32.63,32.63,0,0,1,9,1.29,4.15,4.15,0,0,0,1.52.32h1.53a9.18,9.18,0,0,0,7.63-3.05,9,9,0,0,0,2-7.88,8.14,8.14,0,0,0-2.57-4.66,9.63,9.63,0,0,0-5.14-2.41c-1.07-.21-2.15-.37-3.22-.48a31.36,31.36,0,0,0-3.21-.16,97.19,97.19,0,0,0-14.3.4q-7.08.72-14.31,2-3.54.65-6.91,1.52a42.32,42.32,0,0,0-6.59,2.33,10,10,0,0,0-6.59,8.84,9.7,9.7,0,0,0-.32,2.25q-.32,5.63-.48,11.25t-.32,11.25q-.17,11.1-.24,21.94t-.08,21.94c0,1.39.05,2.76.16,4.1S498.85,467.39,499.07,468.67Zm221.14-3.37a2.6,2.6,0,0,1,.32-.8h.16a1.31,1.31,0,0,0,.48-.16,27.73,27.73,0,0,0,2.82,8.43,14.1,14.1,0,0,0,6.83,6,2.55,2.55,0,0,1-1.61,1,2.5,2.5,0,0,1-1.45-.24l-1.92-1a6.48,6.48,0,0,1-1.77-1.29A14.4,14.4,0,0,1,720.21,465.3ZM705.5,394.75a1.4,1.4,0,0,1,.08-.81q1.13-2.9,2.42-5.62a17.49,17.49,0,0,1,3.53-5,13,13,0,0,1,1.85-1.53c.69-.48,1.42-1,2.17-1.53a2,2,0,0,1,1.2-.4,13.85,13.85,0,0,1,1.69.56,1,1,0,0,0-.24.4c-.06.17-.14.25-.24.25a13.78,13.78,0,0,0-4.58,3.37,27.84,27.84,0,0,0-3.3,4.66c-.53.86-1,1.72-1.44,2.57a28.83,28.83,0,0,1-1.45,2.57c-.21.33-.4.59-.56.81s-.35.48-.56.8l-.65-.32A1.22,1.22,0,0,0,705.5,394.75Zm-28.68,77.14a35.33,35.33,0,0,0,2.17,4,22.46,22.46,0,0,0,2.81,3.61,10.7,10.7,0,0,0,4.34,2.65,8.19,8.19,0,0,0-1.37.57.74.74,0,0,1-.72.08,16.27,16.27,0,0,1-2.81-.57,4.35,4.35,0,0,1-2.33-1.68,15,15,0,0,1-3.06-5.95,44.42,44.42,0,0,1-1.12-6.75Q675.84,469.81,676.82,471.89Zm-22.58-74.25a17.55,17.55,0,0,1,5.54-5.47,14.82,14.82,0,0,1,3.22-1,3.17,3.17,0,0,1,1.44,0q.64.17,1.29,1.29a10.12,10.12,0,0,0-6.67,3.05,44.59,44.59,0,0,0-4.42,5.78c-.54.76-1,1.51-1.45,2.26s-.91,1.55-1.44,2.41a6.65,6.65,0,0,1-.49-1.29A24.59,24.59,0,0,1,654.24,397.64Zm-18.57,61.95a11.58,11.58,0,0,1,1.45-3.13c.11,1.18.16,2.39.16,3.62a13.84,13.84,0,0,0,1.85,6.91c.59,1,1.15,2.11,1.69,3.29a1.81,1.81,0,0,1-1.61-.08,8.5,8.5,0,0,1-1.45-1.2,5.91,5.91,0,0,1-1.69-2.58,14.22,14.22,0,0,1-.72-3.37A9.38,9.38,0,0,1,635.67,459.59ZM620.57,468q.64,1.94,1.2,3.78a23.26,23.26,0,0,0,1.45,3.61,11.21,11.21,0,0,0,2.33,3.14,12.54,12.54,0,0,0,3.7,2.33,2.67,2.67,0,0,1-2,.64,5.29,5.29,0,0,1-1.53-.48c-.53-.43-1.07-.88-1.6-1.37a12.91,12.91,0,0,1-1.45-1.52,12.33,12.33,0,0,1-1.85-4.82A24.59,24.59,0,0,1,620.57,468ZM589,386.63a22,22,0,0,1,4.9-4.42,15,15,0,0,1,4.66-2,8.4,8.4,0,0,1,5.15.57,44,44,0,0,1-4.66,1.36,8.53,8.53,0,0,0-4.18,2.33c-1.29,1.07-2.55,2.15-3.78,3.22s-2.49,2.19-3.78,3.37A6.43,6.43,0,0,1,589,386.63Zm-5.87,46.61a128.16,128.16,0,0,1,5.79-19.53,59.79,59.79,0,0,1,8.36-15.27,6.57,6.57,0,0,1,1-1.12,7.13,7.13,0,0,0,1.05-1.13,4.85,4.85,0,0,1,1.92,1.61,7.52,7.52,0,0,1,1,2.09q1.13,3.21,2.17,6.59t1.85,6.75q1.76,7.88,3.29,15.67t3.3,15.83v1.45A114.79,114.79,0,0,0,579.59,455a5.61,5.61,0,0,0-.08-1.12,2.34,2.34,0,0,1-.08-.64Q581,443.13,583.12,433.24Zm-17.67,37.84c.21,1,.4,2,.56,3a25.62,25.62,0,0,0,.64,3,9,9,0,0,0,1.21,2.65,5.8,5.8,0,0,0,2.57,2q-3.37,1.46-4.82-1.77A8.94,8.94,0,0,1,565.45,471.08Zm-8,4.42a6.64,6.64,0,0,0,3.62-4.09q1,2.4-1.45,4.82c-2.25,2.25-4.56,2.84-6.91,1.77A30.6,30.6,0,0,1,557.49,475.5Zm-10.77-27.08q2.17-1,4.42-1.92a5.05,5.05,0,0,1-3,3.77,9.37,9.37,0,0,1-6.19.4Q544.55,449.4,546.72,448.42Zm7-57.13c1.61-.26,3.22-.56,4.82-.88a3,3,0,0,1-1.52,1.76,13.26,13.26,0,0,1-2.33.81,18.05,18.05,0,0,1-2.9.4,5.55,5.55,0,0,1-3.21-1Q551.3,391.7,553.71,391.29Zm-50.94-.48a7.79,7.79,0,0,1,1.36-3.3,8,8,0,0,1,2.65-2.33,7.31,7.31,0,0,1,3.54-.88c-.86.75-1.69,1.45-2.49,2.09a8.6,8.6,0,0,0-2,2.25,9.73,9.73,0,0,0-1.45,2.73,17,17,0,0,1-1.28,2.89A6.17,6.17,0,0,1,502.77,390.81Zm-.65,71.11c.54,2.15,1.07,4.16,1.61,6a16.3,16.3,0,0,0,2.57,5.22,13.4,13.4,0,0,0,4.18,4c1.61,1,3.21,2,4.82,3.06a9.11,9.11,0,0,1-6-1.53,16.72,16.72,0,0,1-4.74-4.74,18.11,18.11,0,0,1-2.65-6.19A10.29,10.29,0,0,1,502.12,461.92Z"/><path class="cls-1" d="M754.84,448.83a29.38,29.38,0,0,0,12.78,7.31,34.77,34.77,0,0,0,16.8,1,29.26,29.26,0,0,0,14.7-8.19,3.94,3.94,0,0,1,.8-.89,11.18,11.18,0,0,0,1-.88.43.43,0,0,0,.32.16.45.45,0,0,1,.32.16,6.78,6.78,0,0,1-.16,1.77c-.54,2.25-1.07,4.47-1.61,6.67a47.8,47.8,0,0,1-2.09,6.51c-.86,2-1.79,4-2.81,5.94s-2.06,3.86-3.13,5.79a6.35,6.35,0,0,1-5.79,3.53,5,5,0,0,0-3.94,1.77,6.86,6.86,0,0,0-1.68,4.18,7.15,7.15,0,0,0,1.28,4.74,8.42,8.42,0,0,0,4.34,3,15.89,15.89,0,0,0,12.54-.64,23.79,23.79,0,0,0,7.15-5,52.18,52.18,0,0,0,5.54-6.75,70.68,70.68,0,0,0,11.9-28.61c.53-2.78,1-5.49,1.36-8.11s.78-5.33,1.21-8.12a150.72,150.72,0,0,0,1.77-22.82,162.55,162.55,0,0,0-1.61-22.66A114.65,114.65,0,0,0,822.91,374a7.88,7.88,0,0,0-2.74-4.34,6.29,6.29,0,0,0-4.33-1.28c-3.65.22-5.9,2.3-6.76,6.27a15.4,15.4,0,0,0-.4,2.33c0,.7-.13,1.42-.24,2.17q-.48,2.73-.8,5.54c-.22,1.88-.48,3.73-.81,5.55a91.09,91.09,0,0,1-3.13,12.37q-2,6.11-4.42,12.05-1.6,3.7-3.46,7.32t-3.93,7.15a10.57,10.57,0,0,1-5.95,5.22,16,16,0,0,1-8,.4,4.07,4.07,0,0,1-2.41-1,22.79,22.79,0,0,1-2.18-1.77,13.44,13.44,0,0,1-1.84-2.09,55.55,55.55,0,0,1-5.39-9.72,63.6,63.6,0,0,1-3.45-10.53,49.56,49.56,0,0,1-1-4.9c-.27-1.66-.51-3.29-.72-4.9-.32-2.36-.62-4.71-.88-7.07s-.57-4.72-.89-7.07c-.21-1.18-.45-2.33-.72-3.46a9.69,9.69,0,0,0-1.53-3.29,6.64,6.64,0,0,0-5-2.82,6.47,6.47,0,0,0-5.3,2,7.73,7.73,0,0,0-1.93,2.49,25.51,25.51,0,0,0-1.13,2.82,70.23,70.23,0,0,0-3.21,12.85,89.18,89.18,0,0,0-1,13.18A57.51,57.51,0,0,0,746.09,437,51.82,51.82,0,0,0,754.84,448.83Zm32.87,40.25q-5-2.73-3.54-7.87a20.79,20.79,0,0,0,2.09,3.38,6.36,6.36,0,0,0,2.9,2.08,26.9,26.9,0,0,0,3.21,1.37c1.07.37,2.19.78,3.38,1.21Q793.17,492.13,787.71,489.08Zm25.87-116.51a4,4,0,0,1,2-1.45,5.46,5.46,0,0,1,2.17.16l-1.85,2.49a19.08,19.08,0,0,0-1.52,2.49,10.14,10.14,0,0,0-1.21,2.82q-.4,1.53-.72,3a1.24,1.24,0,0,0-.48-.16,1.14,1.14,0,0,1-.48-.16A10.54,10.54,0,0,1,813.58,372.57ZM757.82,441a28.38,28.38,0,0,0,20.73,10.61,14.09,14.09,0,0,1,2.25.32l.32.64a4.26,4.26,0,0,1-2.57,1.29,12.7,12.7,0,0,1-2.89,0,21.94,21.94,0,0,1-8.6-2.33,37.39,37.39,0,0,1-7.47-5.06,33.12,33.12,0,0,1-8.68-11.74,6.46,6.46,0,0,1-.49-1.2c-.1-.38-.21-.83-.32-1.37l.65-.32a9.1,9.1,0,0,0,.64.88,7.76,7.76,0,0,0,.64.73c1,1.28,1.9,2.57,2.81,3.86A38.47,38.47,0,0,0,757.82,441Zm-12.06-56.09a16.84,16.84,0,0,1,2.09-3.85,5.76,5.76,0,0,1,3.7-2.25l.48.48c-.54.75-1,1.45-1.53,2.09a14,14,0,0,0-1.36,2.25,12.12,12.12,0,0,0-1,2.41c-.26.86-.56,1.71-.88,2.57s-.43,1.71-.64,2.57-.48,1.77-.81,2.73Q743.2,390.9,745.76,384.94Z"/><path class="cls-1" d="M333.7,586.88a5.81,5.81,0,0,0-4.9-.88,5.08,5.08,0,0,0-2.9,1.52,11.29,11.29,0,0,0-1.93,3,68.51,68.51,0,0,1-3.61,7.16,26.32,26.32,0,0,1-5.22,6.34,12,12,0,0,1-5.15,3,10.48,10.48,0,0,1-5.14.16,12.32,12.32,0,0,1-4.5-2.09,10.32,10.32,0,0,1-3.21-3.78,59.15,59.15,0,0,1-5.55-14.06,73.44,73.44,0,0,1-2.17-15v-1.76A65.86,65.86,0,0,1,293.6,551a28.56,28.56,0,0,1,5.3-9.64q5.14-7.08,14.31-6.59a10.71,10.71,0,0,1,4.5,1.44,9.62,9.62,0,0,1,3.05,3.38,3.44,3.44,0,0,0,.64,1.28,5.1,5.1,0,0,0,5.63,3.06c2.35-.11,4-1.39,4.82-3.86a9.46,9.46,0,0,0,0-6.43,20.69,20.69,0,0,0-5.22-8.43,23.94,23.94,0,0,0-8.12-5.07,29.64,29.64,0,0,0-19.93-.16,35.25,35.25,0,0,0-11,6.27,46.41,46.41,0,0,0-8.43,9.48,74.12,74.12,0,0,0-11.25,26.6,66,66,0,0,0,1,28.85,50.86,50.86,0,0,0,9,19.2q6.27,8.11,17.36,12.14,14.78,5.14,27-4.18a36.7,36.7,0,0,0,6.43-6,52.83,52.83,0,0,0,5-7.15,23.55,23.55,0,0,0,2.89-6.91,12.15,12.15,0,0,0,.16-7.07A7.74,7.74,0,0,0,333.7,586.88Zm-10.61-49.82a11.75,11.75,0,0,0,1.85,1.77,5.26,5.26,0,0,0,2.17,1,5.64,5.64,0,0,0,3-.4,3.92,3.92,0,0,1-2.33,1.77,4.1,4.1,0,0,1-2.65-.25,6.3,6.3,0,0,1-2.41-2,7.77,7.77,0,0,1-1.45-3.7A14.69,14.69,0,0,1,323.09,537.06Zm-34.39-8.52a22.52,22.52,0,0,1,3.94-3.13,24.46,24.46,0,0,1,4.58-2.34,9.54,9.54,0,0,1,4.09-.72q-3.85,2.42-7.47,4.74c-2.41,1.56-4.85,3.08-7.31,4.58A8.41,8.41,0,0,1,288.7,528.54Zm3.13,89.6a26,26,0,0,1-5.46-3.3,26.56,26.56,0,0,1-4.5-4.42,16.11,16.11,0,0,1-2.73-4.66c1.49,1.29,2.89,2.57,4.17,3.86a46.92,46.92,0,0,0,4.18,3.7,32.11,32.11,0,0,0,4.66,3c1.61.86,3.32,1.88,5.15,3A13.43,13.43,0,0,1,291.83,618.14Zm38.57-28.61a7.78,7.78,0,0,0-2.25,1.69,27.71,27.71,0,0,0-1.85,2.25,13.31,13.31,0,0,1-2,2.17,5.9,5.9,0,0,0-.08-1,1,1,0,0,1,.08-.72c.53-.86,1.07-1.77,1.6-2.73a11.53,11.53,0,0,1,1.93-2.57q2.42-2.9,5.95.64A5.65,5.65,0,0,0,330.4,589.53Z"/><path class="cls-1" d="M416.71,620.07a21.6,21.6,0,0,1-1.85-1.37,20.46,20.46,0,0,1-1.69-1.53q-3.85-3.21-7.55-6.34t-7.72-6q-5.79-4.18-11.65-8t-11.81-7.71c-.43-.32-.83-.64-1.21-1a6.6,6.6,0,0,0-1.2-.8c.32-.53.53-.8.64-.8A10,10,0,0,1,374,586a68.58,68.58,0,0,0,14.94-6.11,57.8,57.8,0,0,0,12.7-9.64,64.83,64.83,0,0,0,7-7.88,37,37,0,0,0,5.06-9.32,35.11,35.11,0,0,0,2.09-17,31.51,31.51,0,0,0-7.07-15.5,33.32,33.32,0,0,0-8.28-7.32,42.33,42.33,0,0,0-9.88-4.42,57.74,57.74,0,0,0-20.89-2.49,84.87,84.87,0,0,0-20.58,4.1,29.42,29.42,0,0,0-3.85,1.77q-4,2.73-2.89,7.23a6,6,0,0,0,5.62,5,4.7,4.7,0,0,0,1.53.08,15.33,15.33,0,0,0,1.52-.24,69.15,69.15,0,0,1,11.25-1.61,46.06,46.06,0,0,1,11.41.81,59.83,59.83,0,0,1,7.4,2,26.94,26.94,0,0,1,6.75,3.45q5.94,4.18,6.51,8.6a16.71,16.71,0,0,1-1.69,9.24,24.2,24.2,0,0,1-6.75,8.52,57,57,0,0,1-10.61,7.07,83.51,83.51,0,0,1-11.89,5,3.86,3.86,0,0,1-1.37.4,12.09,12.09,0,0,0-1.85.41c-.1-1.4-.18-2.65-.24-3.78s-.13-2.28-.24-3.46c-.21-3.53-.45-7.07-.72-10.6s-.62-7-1.05-10.45c-.1-1.5-.27-3-.48-4.42a20.13,20.13,0,0,0-1.12-4.26,5.3,5.3,0,0,0-2.17-3.05,7,7,0,0,0-3.78-1c-2.68,0-4.61,1.35-5.79,4-.21.65-.42,1.34-.64,2.09a18.06,18.06,0,0,0-.48,2.25c-.22,1.82-.35,3.62-.4,5.38s-.14,3.57-.24,5.39q-.64,9.81-1,19.93a16.42,16.42,0,0,1-.56,3.13,5.55,5.55,0,0,1-2,2.65,8.91,8.91,0,0,0-3.53,6.83,8.55,8.55,0,0,0,3.05,7,6.3,6.3,0,0,1,2.09,5.15c-.11,2.46-.16,4.93-.16,7.39s-.06,4.93-.16,7.39a11.28,11.28,0,0,0,2.41,7.23,9.87,9.87,0,0,0,3.77,3.3,9.19,9.19,0,0,0,4.42,1,9.71,9.71,0,0,0,4.42-1.28,10.05,10.05,0,0,0,3.62-3.46,12.9,12.9,0,0,0,1.93-7.07,14.59,14.59,0,0,1,.08-1.61c.05-.53.08-1.17.08-1.92a10.66,10.66,0,0,0,1.69,1.2,12.66,12.66,0,0,1,1.36.88q7.4,5.79,14.63,11.5t14.62,11.33a44,44,0,0,0,5.39,3.45c1.87,1,3.72,2.06,5.54,3.14a10.65,10.65,0,0,0,3,1.12l3.14.64a8.44,8.44,0,0,0,5.7-1,7.81,7.81,0,0,0,3.62-4.26,8.27,8.27,0,0,0-3.21-9.8Zm-71.36-99.65a5.15,5.15,0,0,1-1.13-3.53,4.24,4.24,0,0,1,1.93-3.06q-1.12,3.54.56,5.23a13.49,13.49,0,0,0,4.42,2.81C349,523.16,347.06,522.67,345.35,520.42Zm46.12,6.43a5,5,0,0,0,1.53.08,1,1,0,0,1,.88.24,9.19,9.19,0,0,1,4.5,4.5,15,15,0,0,1,1.45,8.2,16.93,16.93,0,0,1-3.05,7.71,4.77,4.77,0,0,1-1.29,1.13c-.11-.11-.19-.16-.24-.16s-.14,0-.24-.16c.21-.54.37-1,.48-1.37s.27-.83.48-1.36a19,19,0,0,0,1.29-9.16,12.54,12.54,0,0,0-1.69-5.15A18.39,18.39,0,0,0,391.47,526.85Zm-52.71,51.59a8.94,8.94,0,0,1,.64-3.37,4.46,4.46,0,0,1,2.73-2.42,16,16,0,0,1-.88,3,6.82,6.82,0,0,0-.56,2.65,8.42,8.42,0,0,0,.56,3q.56,1.53,1.05,3.3A6,6,0,0,1,338.76,578.44Zm8.52-47.73a2.76,2.76,0,0,1,1.68-1.45,7.4,7.4,0,0,1,2.5.16c-.54.54-1.13,1.08-1.77,1.61a7,7,0,0,0-1.61,1.93,7.41,7.41,0,0,0-1,2c-.22.7-.49,1.42-.81,2.17a.33.33,0,0,1-.24-.08.66.66,0,0,0-.4-.08A6.57,6.57,0,0,1,347.28,530.71ZM352,614.52a2.32,2.32,0,0,1-1.37-.24q-1.29-.64-2.49-1.2a5.9,5.9,0,0,1-2-1.53,13.1,13.1,0,0,1-2.73-10.77c0,.11.32-.26,1-1.12a20.05,20.05,0,0,0,2.25,9,6.63,6.63,0,0,0,3,3c1.23.59,2.54,1.15,3.94,1.69A2.47,2.47,0,0,1,352,614.52Zm63.24,17.28a11,11,0,0,1-3.86.8,20.39,20.39,0,0,1-6-1.52,23.07,23.07,0,0,1-5.38-3.3,2.07,2.07,0,0,1-.48-.72,2.16,2.16,0,0,0-.48-.72c0-.11.1-.28.32-.49a41.94,41.94,0,0,0,4.34,2.33,28.17,28.17,0,0,0,4.66,1.69,18.1,18.1,0,0,0,4.42.4,7,7,0,0,0,4.26-1.85C417,630.14,416.44,631.26,415.26,631.8Z"/><path class="cls-1" d="M505.74,557.23q.31-6.43.48-13.18a69.07,69.07,0,0,0-.48-8.2l-1-8a13.66,13.66,0,0,0-2.9-7.56,9.59,9.59,0,0,0-3.37-2.89,8.94,8.94,0,0,0-4-1,8.43,8.43,0,0,0-3.94,1,9.81,9.81,0,0,0-3.29,2.89c-.65.86-1.26,1.75-1.85,2.66a11.48,11.48,0,0,0-1.37,3q-1.92,5.29-3.85,10.61t-3.54,10.6q-3.21,10.6-6.67,20.82a208.73,208.73,0,0,1-8.12,20.32A69.93,69.93,0,0,1,457.2,597a48.42,48.42,0,0,1-6.1,7.8c-1.83,2-3.49,2.87-5,2.49a8.73,8.73,0,0,1-4.49-3.46,7.48,7.48,0,0,1-1.61-3.37q-.81-2.25-1.45-4.58c-.43-1.55-.8-3.14-1.12-4.74a132,132,0,0,1-1.77-14.47q-.48-7.23-.81-14.46a116,116,0,0,0-1.2-11.65c-.59-3.8-1.31-7.64-2.17-11.49q-1.29-5.31-6.27-5t-5.94,5.14q-1.14,5.94-2,11.81t-1.69,11.81a161.44,161.44,0,0,0-.64,32.3,51.89,51.89,0,0,0,1.2,7.64,36.45,36.45,0,0,0,2.65,7.47,29.56,29.56,0,0,0,7.32,9.32,22.33,22.33,0,0,0,10.52,4.83,30.31,30.31,0,0,0,15.43-1,24.56,24.56,0,0,0,12.05-9.72,74.69,74.69,0,0,0,4.1-6.91q1.85-3.54,3.62-7.24,2.73-6.42,5.22-12.85l5.06-13c.22-.54.43-1.1.65-1.69s.42-1.15.64-1.68a.33.33,0,0,1,.24.07.3.3,0,0,0,.24.09,2.87,2.87,0,0,0,.08.64,2.34,2.34,0,0,1,.08.64c-.21,1.82-.35,3.62-.4,5.39s-.19,3.56-.4,5.38q-.81,7.71-1,15.35a121.73,121.73,0,0,0,.64,15.35,21.4,21.4,0,0,0,.48,2.81c.21.91.48,1.85.8,2.81a8,8,0,0,0,3.86,5c2.46,1.72,4.82,2.25,7.07,1.61s4-2.35,5.15-5.14c.32-.86.64-1.74,1-2.66a22.79,22.79,0,0,0,.8-2.81,57.49,57.49,0,0,0,1.45-11.17q.17-5.54.48-11.17c.21-3.75.4-7.41.56-11s.35-7.26.57-11Q505.42,563.66,505.74,557.23Zm-85-14.63a16.65,16.65,0,0,1,1.29-2.89,6.45,6.45,0,0,1,1.68-1.93,4.85,4.85,0,0,1,3-.8c-.64.86-1.23,1.63-1.77,2.33a19.06,19.06,0,0,0-1.45,2.17,19.31,19.31,0,0,0-.88,2.09q-.4,1.13-.72,2.25a2,2,0,0,1-.81-.16A3.93,3.93,0,0,1,420.72,542.6Zm17.12,78.11-1.69-.32a14.53,14.53,0,0,1-6.75-3.54,30.06,30.06,0,0,1-10.12-19,5,5,0,0,1-.09-1.53,12.35,12.35,0,0,0,.09-1.53h.8q1,2.58,1.85,5.07t2,5.06a19.9,19.9,0,0,0,6.26,9,40.88,40.88,0,0,0,4.58,3.13c1.56.91,3.14,1.91,4.75,3A1.88,1.88,0,0,1,437.84,620.71Zm55,1.93c-.64-.32-1.28-.67-1.93-1a8.21,8.21,0,0,1-1.76-1.36,11,11,0,0,1-3.06-6.11q-.48-3.37-.64-6.91a1.19,1.19,0,0,0,.48-.08,1.19,1.19,0,0,1,.48-.08,11.28,11.28,0,0,1,.49,1.45c.1.42.21.85.32,1.28.21.86.42,1.64.64,2.33s.43,1.42.64,2.17a10.1,10.1,0,0,0,4.82,6.43l.65.64a8.92,8.92,0,0,0,1,.81A4.46,4.46,0,0,1,492.88,622.64Zm-2.49-97.07c-1.34,2.25-2.71,4.44-4.1,6.59a.33.33,0,0,1-.24-.08.3.3,0,0,0-.24-.09,1.93,1.93,0,0,0-.16-.72.83.83,0,0,1,0-.72,16,16,0,0,1,6.11-10.13,4.48,4.48,0,0,1,1.85-1.12,3.87,3.87,0,0,1,2.81.64A15.76,15.76,0,0,0,490.39,525.57Z"/><path class="cls-1" d="M693.53,581.82a32.52,32.52,0,0,0-5.22-13.5,30,30,0,0,0-11.25-10l-1-.64a11.16,11.16,0,0,0-1.12-.64c.21-.54.53-1.23,1-2.09a27.86,27.86,0,0,0,1.93-22.66,23.13,23.13,0,0,0-8.28-12,25.24,25.24,0,0,0-14.7-4.9,45.12,45.12,0,0,0-7.07-.08q-3.54.24-7.07.57a14,14,0,0,0-2.58.56c-.85.27-1.71.56-2.57.88a5.44,5.44,0,0,0-3.05,2.81,6,6,0,0,0,2.33,7.07,5.72,5.72,0,0,0,3.94.73c.85-.11,1.66-.24,2.41-.4s1.55-.3,2.41-.41a43.22,43.22,0,0,1,6.91-.08,17.46,17.46,0,0,1,6.59,1.85,9.69,9.69,0,0,1,5.46,6.27,10,10,0,0,1-.48,7.71c-.75,1.18-1.55,2.36-2.41,3.54a20.56,20.56,0,0,1-2.89,3.21,65.79,65.79,0,0,1-24.27,13.18h-1l-.33-.64q-.79-7.87-1.52-15.67T628.2,531q-.16-2.25-.48-4.26c-.22-1.34-.43-2.65-.65-3.93a5,5,0,0,0-4-4.34,4.65,4.65,0,0,0-5.15,1.6,9.86,9.86,0,0,0-2.25,3.22c-.42,1.28-.8,2.6-1.12,3.93s-.59,2.71-.8,4.1q-1.14,13.83-1.93,28.13c-.22,3.53-.35,7.07-.4,10.6s-.09,7-.09,10.45q0,6.11.09,12.14c0,1.42.05,2.86.08,4.29-.27-3-.57-6.05-.8-9q-.65-8-1.45-16.23-.81-6.59-1.85-12.94t-1.85-12.93c-.43-2.9-.91-5.76-1.44-8.6a60.82,60.82,0,0,0-2.25-8.44,31.83,31.83,0,0,0-1.93-4.34,16.59,16.59,0,0,0-2.89-3.85,9.29,9.29,0,0,0-9.49-2.42,12.63,12.63,0,0,0-6.1,4.18,42.26,42.26,0,0,0-5.15,7.8,73,73,0,0,0-3.69,8.6q-3.71,10.75-7.32,21.37T558,581.33a9.75,9.75,0,0,1-1.12,2.57,3.76,3.76,0,0,1-.65-1.2c-.1-.37-.21-.77-.32-1.2-.54-3.11-1-6.22-1.52-9.33s-1-6.21-1.53-9.32a149.08,149.08,0,0,0-6.43-23.94,20,20,0,0,0-2.57-5q-3.54-5.46-10.29-4.66a10.6,10.6,0,0,0-5.06,2.09,14.93,14.93,0,0,0-3.46,4,78.74,78.74,0,0,0-4,7.87c-1.18,2.68-2.25,5.42-3.22,8.2q-4,11.25-6.91,22.74t-5.14,23.07c-.22,1.71-.43,3.37-.64,5a18.87,18.87,0,0,0,0,5c.53,3.64,2.25,5.78,5.14,6.43q4.66,1.29,7.71-3.54c.43-.64.83-1.31,1.21-2a9.89,9.89,0,0,0,.88-2.33q3.23-8.5,6.19-16.87T532.42,572c.21-.53.4-1,.56-1.52s.35-1,.56-1.53h.65c.1.43.21.83.32,1.21s.21.77.32,1.2q1,5.14,2,10.2t1.85,10.21c.64,3.32,1.23,6.62,1.76,9.88s1.13,6.51,1.77,9.73q.64,2.73,1.45,5.46a18.61,18.61,0,0,0,2.41,5.15,13.68,13.68,0,0,0,2.49,2.73,8.4,8.4,0,0,0,3.13,1.61,9.77,9.77,0,0,0,6.19-.41,9.41,9.41,0,0,0,4.74-4.42,49.78,49.78,0,0,0,3.7-8.84q1.77-5.77,3.53-11.49t3.54-11.49l10.12-32.3a12.82,12.82,0,0,1,.41-1.29,3.16,3.16,0,0,1,1-1.28c.11.53.19,1,.24,1.44a9.31,9.31,0,0,1,.08,1.29q.33,6.44.65,12.77t.8,12.62q.64,7.23,1.37,14.31t1.52,14.3a17,17,0,0,0,1.93,6A13.32,13.32,0,0,0,596,622a9.55,9.55,0,0,0,6,1.28A10.77,10.77,0,0,0,608,621a12.23,12.23,0,0,0,3.7-5.14,12.94,12.94,0,0,0,1.08-5.1.56.56,0,0,1,0,.12q4.5,12.86,18.32,15.26a59.09,59.09,0,0,0,24.91-.48,72.24,72.24,0,0,0,15.91-5.54,42.78,42.78,0,0,0,13.34-10.37,32.78,32.78,0,0,0,7.32-13.34A35.65,35.65,0,0,0,693.53,581.82ZM635.43,524q-1.6-3,1.45-5.3v2.25a6.45,6.45,0,0,0,.32,2.09,4.63,4.63,0,0,0,1.45,1.44,22,22,0,0,1,1.92,1.45C638.11,526.43,636.4,525.78,635.43,524ZM511.2,610.83a8.23,8.23,0,0,1-1.44-1.21,5.79,5.79,0,0,1-1.69-2.57,13.47,13.47,0,0,1-.72-3.38,9.33,9.33,0,0,1,.32-3.45,11.19,11.19,0,0,1,1.44-3.14c.11,1.19.17,2.39.17,3.62a13.9,13.9,0,0,0,1.84,6.91c.59,1,1.15,2.12,1.69,3.3A1.88,1.88,0,0,1,511.2,610.83Zm19.85-74.66a46.34,46.34,0,0,0-4.42,5.79,25.68,25.68,0,0,0-1.44,2.25c-.43.75-.92,1.55-1.45,2.41a7.38,7.38,0,0,1-.48-1.28,24.35,24.35,0,0,1,3-7.08,17.45,17.45,0,0,1,5.55-5.46,13.7,13.7,0,0,1,3.21-1,3.22,3.22,0,0,1,1.45,0c.42.1.85.53,1.28,1.28A10.15,10.15,0,0,0,531.05,536.17Zm25.72,87.19a.73.73,0,0,1-.73.08,15.54,15.54,0,0,1-2.81-.56,4.46,4.46,0,0,1-2.33-1.69,14.89,14.89,0,0,1-3-6,44.49,44.49,0,0,1-1.13-6.74q1.13,1.92,2.09,4a36.07,36.07,0,0,0,2.17,4,22.54,22.54,0,0,0,2.81,3.62,10.88,10.88,0,0,0,4.34,2.65A7.81,7.81,0,0,0,556.77,623.36Zm33.42-101.89q-.08.24-.24.24a14,14,0,0,0-4.58,3.37,26.93,26.93,0,0,0-3.29,4.67,28.83,28.83,0,0,0-1.45,2.57c-.43.86-.91,1.71-1.44,2.57-.22.32-.41.59-.57.8s-.35.48-.56.81l-.64-.33a1.37,1.37,0,0,0,.08-.8,1.22,1.22,0,0,1,.08-.8c.75-1.93,1.55-3.8,2.41-5.63a17.69,17.69,0,0,1,3.53-5,15.21,15.21,0,0,1,1.85-1.53c.7-.48,1.42-1,2.17-1.52a2,2,0,0,1,1.21-.41,15.3,15.3,0,0,1,1.69.57A1,1,0,0,0,590.19,521.47Zm11,99a2.64,2.64,0,0,1-1.44-.24l-1.93-1a7,7,0,0,1-1.77-1.28,14.46,14.46,0,0,1-3.86-12.06,3.05,3.05,0,0,1,.32-.8h.17a1.24,1.24,0,0,0,.48-.16A27.78,27.78,0,0,0,596,613.4a14.08,14.08,0,0,0,6.83,6A2.55,2.55,0,0,1,601.2,620.47Zm15.43-94.26a8.66,8.66,0,0,1,2.89-4.5,6.29,6.29,0,0,1,1.85-1.29,2.6,2.6,0,0,1,2.33.17v.64a6.48,6.48,0,0,0-3.94,2.81,24.43,24.43,0,0,0-2,4.26,13.2,13.2,0,0,0-.56,1.85,3,3,0,0,1-1.53,1.84A41.1,41.1,0,0,1,616.63,526.21Zm12.53,97.15a5.49,5.49,0,0,1-1.12-.24,30.07,30.07,0,0,1-8-5.55,17.43,17.43,0,0,1-4.66-8.59c0,.11.11-.16.32-.81.65,1.08,1.26,2.12,1.85,3.14a17.86,17.86,0,0,0,2,2.81,39.3,39.3,0,0,0,4.82,4.66q2.73,1.94,5.95,4A1.17,1.17,0,0,1,629.16,623.36ZM662,548c.21-.38.43-.73.64-1a14.94,14.94,0,0,0,2.74-11.41,20,20,0,0,0-.89-2.89l-1.2-3.06a8.33,8.33,0,0,1,3.21,3.78,11.34,11.34,0,0,1,1,5.39,14,14,0,0,1-1.6,5.7,12.26,12.26,0,0,1-4.5,4.74C661.52,548.76,661.73,548.36,662,548Zm10.93,42.67a13.2,13.2,0,0,1-4.18,5.94,33.13,33.13,0,0,1-10,6,52,52,0,0,1-11.34,2.81q-2.73.33-5.7.48t-5.87.16c-1.6,0-2.54-.18-2.81-.56a8.2,8.2,0,0,1-.72-3c-.11-1.82-.22-3.7-.32-5.63s-.22-3.8-.32-5.62h.15V587a2.08,2.08,0,0,1,1.77-2.41q5.63-1.6,10.93-3.62a51.48,51.48,0,0,1,10.93-2.81,42.44,42.44,0,0,1,4.34-.4,36.93,36.93,0,0,0,4.18-.4,7.45,7.45,0,0,1,4.1.88,10.27,10.27,0,0,1,3.45,3,10.56,10.56,0,0,1,1.93,4.42A9.26,9.26,0,0,1,672.88,590.66Zm5.54-1.45a16.67,16.67,0,0,1-3,6.43,1.76,1.76,0,0,0-.8-.16c.21-.86.42-1.61.64-2.25a17.57,17.57,0,0,0,1.12-3.86,13.3,13.3,0,0,0,0-4.18,12.42,12.42,0,0,0-1.52-4.82,12.07,12.07,0,0,0-3.46-3.7,2,2,0,0,1-.56-.4,2.28,2.28,0,0,0-.56-.4v-.64q5.94,1.44,7.55,6.91A12.85,12.85,0,0,1,678.42,589.21Z"/><path class="cls-1" d="M756.21,612a12.11,12.11,0,0,0-6-2.25h-4.5q-6.27-.64-12.54-1.12a79.42,79.42,0,0,0-12.53,0,13,13,0,0,1-1.45-.33,6.58,6.58,0,0,1-.16-1.28,4.63,4.63,0,0,0-.16-1.13q-.33-7.23-.56-14.22t-.56-14.22q-.16-3.21-.33-6.27t-.32-6.27q-.32-5.62-.72-11.41t-.88-11.41q-.48-5-1.05-10T713.22,522a19.81,19.81,0,0,0-1.77-5.3,4.93,4.93,0,0,0-5.47-3.22q-4.17.33-5.3,3.7a14.18,14.18,0,0,0-.8,4.5q-.33,6.27-.41,12.53t-.24,12.54q-.15,9.16-.16,18.4t-.16,18.4q0,6.6-.16,13.1t0,13.1a7.79,7.79,0,0,1-.72,3.62,6.7,6.7,0,0,1-2.65,2.49,5.34,5.34,0,0,0-2.58,3.21,10.75,10.75,0,0,0-.15,4.18,6.61,6.61,0,0,0,5.14,5.79,19.23,19.23,0,0,0,8.19.16,89,89,0,0,1,29.25-.32,60.74,60.74,0,0,1,6.35,1,60.74,60.74,0,0,0,6.35,1,11.41,11.41,0,0,0,4.5-.24,9.2,9.2,0,0,0,4-2.17,10.13,10.13,0,0,0,3.45-5.14,10.27,10.27,0,0,0-.08-6.11A9.62,9.62,0,0,0,756.21,612Zm-55.29,15.75a5.62,5.62,0,0,1-3.29-1.44q-3.86-3.06-1.77-7.56c.53,1.07,1,2.09,1.36,3.05a7.45,7.45,0,0,0,1.69,2.58,6.13,6.13,0,0,0,2.41,1.44,12.19,12.19,0,0,1,2.73,1.29A5,5,0,0,1,700.92,627.78Zm6.19-111.53a6,6,0,0,0-2.41,3.45c-.32,1.34-.59,2.71-.8,4.1a8.21,8.21,0,0,0-.41,1.93c0,.64-.13,1.28-.24,1.93a6.86,6.86,0,0,1-1.12-2.66,11.63,11.63,0,0,1-.24-3.13,8.7,8.7,0,0,1,.64-3,6.47,6.47,0,0,1,1.37-2.17,6.05,6.05,0,0,1,1.36-1.05,2.44,2.44,0,0,1,1.85-.08Zm48.53,109.28q-3.37,4.19-7.71,2.57a22.38,22.38,0,0,0,5.55-3.86,11.53,11.53,0,0,0,3.13-6.1Q758.7,621.52,755.64,625.53Z"/><path class="cls-1" d="M820.89,607.53a12.23,12.23,0,0,0-5-1.45c-1.71-.21-3.4-.37-5.06-.48s-3.35-.16-5.06-.16q-6.12-.15-12.14-.08t-12.13.08a2.81,2.81,0,0,1-1.93-.48,3.85,3.85,0,0,1-.8-1.77,5.75,5.75,0,0,1-.24-2c.05-.48.61-1,1.68-1.52a39.13,39.13,0,0,1,6.59-2.58c2.25-.64,4.56-1.17,6.91-1.6,2-.33,4.07-.56,6.11-.73s4.07-.29,6.11-.4a11.78,11.78,0,0,0,5.94-2.17,8.52,8.52,0,0,0,3.38-4.74,8.64,8.64,0,0,0-.32-5.7,9.83,9.83,0,0,0-3.86-4.42,9,9,0,0,0-3.78-1.37,14,14,0,0,0-3.93.08q-6.27.81-12.3,2a34.57,34.57,0,0,0-11.65,4.74,2.31,2.31,0,0,1-1,.4,7.32,7.32,0,0,0-1.28.4q-.81-12-1.53-23.94t-1.53-24.27l2.18-.32a13.72,13.72,0,0,1,2.16-.16q3.54-.17,7-.16c2.3,0,4.63-.06,7-.16h9.16a32.89,32.89,0,0,1,9,1.28,4,4,0,0,0,1.52.32h1.53a9.2,9.2,0,0,0,7.64-3,9,9,0,0,0,2-7.87,8.11,8.11,0,0,0-2.57-4.66,9.64,9.64,0,0,0-5.14-2.42c-1.07-.21-2.15-.37-3.21-.48s-2.15-.16-3.22-.16a98.59,98.59,0,0,0-14.3.4c-4.72.48-9.49,1.16-14.3,2q-3.54.64-6.92,1.53a42.68,42.68,0,0,0-6.59,2.33,10,10,0,0,0-6.58,8.84,9.19,9.19,0,0,0-.33,2.25q-.32,5.63-.48,11.25c-.11,3.75-.21,7.5-.32,11.25q-.17,11.08-.24,21.94T759,601.26c0,1.4.05,2.76.16,4.1s.27,2.65.48,3.94q1,6.44,4.26,10t9.56,4.9a46.93,46.93,0,0,0,15.59.65c4.39-.65,8.71-1.31,12.94-2a114.48,114.48,0,0,1,13.1-1.37,10.78,10.78,0,0,0,5.94-1.76,6.19,6.19,0,0,0,2.82-2.66,7.43,7.43,0,0,0,.88-3.45,6.93,6.93,0,0,0-1-3.46A6.69,6.69,0,0,0,820.89,607.53Zm-13.58-18.48c1.45-.64,2.92-1.29,4.42-1.93a5.07,5.07,0,0,1-3,3.78,9.43,9.43,0,0,1-6.19.4C804.28,590.44,805.87,589.69,807.31,589.05Zm7-57.14c1.61-.26,3.22-.56,4.82-.88a3,3,0,0,1-1.52,1.77,13,13,0,0,1-2.33.8,17,17,0,0,1-2.89.4,5.49,5.49,0,0,1-3.22-1C811,532.53,812.7,532.18,814.3,531.91Zm-50.94-.48a7.79,7.79,0,0,1,4-5.62,7.2,7.2,0,0,1,3.53-.89c-.86.76-1.69,1.45-2.49,2.09a9.34,9.34,0,0,0-2,2.25A9.69,9.69,0,0,0,765,532a18.4,18.4,0,0,1-1.29,2.9A6.19,6.19,0,0,1,763.36,531.43Zm6.51,87.91a16.47,16.47,0,0,1-4.74-4.74,18.13,18.13,0,0,1-2.66-6.19,10.16,10.16,0,0,1,.25-5.86q.79,3.21,1.6,6a16.51,16.51,0,0,0,2.57,5.22,13.63,13.63,0,0,0,4.18,4q2.41,1.44,4.82,3A9,9,0,0,1,769.87,619.34Zm50.38-2.49q-3.37,3.38-6.91,1.77a31.43,31.43,0,0,1,4.74-2.49,6.66,6.66,0,0,0,3.62-4.1C822.34,613.64,821.86,615.24,820.25,616.85Z"/><path class="cls-1" d="M906.31,527.17a.52.52,0,0,1-.24-.48,9.16,9.16,0,0,0-1.29-3.29,21.58,21.58,0,0,0-2.09-2.81,12.89,12.89,0,0,0-6.42-4.26,73,73,0,0,0-7.4-1.69,34.22,34.22,0,0,0-12.13.24,72.63,72.63,0,0,0-11.65,3.45,76.79,76.79,0,0,0-16.32,8.92A80.85,80.85,0,0,0,835,539.87a75.86,75.86,0,0,0-6.1,8.36,44.49,44.49,0,0,0-4.5,9.48,22.49,22.49,0,0,0,10,25.79,56.46,56.46,0,0,0,8,3.78,65.23,65.23,0,0,0,6.75,2.17c2.25.59,4.44,1.26,6.59,2,.53.22,1,.4,1.52.56s1.15.35,2,.56a22.86,22.86,0,0,0-1.85,1.45,10.07,10.07,0,0,1-1.52,1.12,35.82,35.82,0,0,0-9,10.13,12.5,12.5,0,0,0-1.85,10.21,11.71,11.71,0,0,0,6.67,7.63,38.26,38.26,0,0,0,17.35,4.18,41.56,41.56,0,0,0,27.49-10.13,19.23,19.23,0,0,0,7.23-12.29,20.21,20.21,0,0,0-3.05-14.06,26.87,26.87,0,0,0-4.75-5.55,40.41,40.41,0,0,0-5.86-4.26,60.12,60.12,0,0,0-9.24-4.58q-4.74-1.84-9.56-3.61c-2.79-1-5.63-1.93-8.52-2.9s-5.74-2-8.52-3q-5-1.77-4.82-7.55a9.58,9.58,0,0,1,1-4.34,51.76,51.76,0,0,1,3.86-5.63,50.63,50.63,0,0,1,7.47-8,69,69,0,0,1,8.76-6.43A67.87,67.87,0,0,1,878,531a31.22,31.22,0,0,1,8.12-2.33q6.58-.79,9,5.3a1.44,1.44,0,0,1,.4.73,1.37,1.37,0,0,0,.4.72,5.45,5.45,0,0,0,5.15,2.89,5.38,5.38,0,0,0,4.82-3,6.79,6.79,0,0,1,.8-1.45V527.5A2.81,2.81,0,0,0,906.31,527.17Zm-66.78,53.52a10.55,10.55,0,0,0-1.52-.48,6.17,6.17,0,0,1-1.37-.48,15.2,15.2,0,0,1-6.43-6.59,22.86,22.86,0,0,1-2.17-7.48,15.15,15.15,0,0,1,1.37-7.79,5.25,5.25,0,0,1,.32,1.45,20.62,20.62,0,0,1,.08,3.13,12.87,12.87,0,0,0,.24,3.13,17.07,17.07,0,0,0,6.11,10.93c.64.54,1.26,1.1,1.85,1.69s1.2,1.15,1.84,1.69A1.09,1.09,0,0,0,839.53,580.69Zm8.36,34.07a11.11,11.11,0,0,1-.24-6,6.26,6.26,0,0,1,3-4.1c-.32,2.14-.62,3.75-.88,4.82a9.6,9.6,0,0,0-.32,3,6.64,6.64,0,0,0,1,3q1,1.61,3.06,5Q849.5,620.39,847.89,614.76Zm41.63-14.3c.85,2.47-.17,4.5-3.06,6.11.32-1.29.56-2.28.73-3a5.87,5.87,0,0,0,.16-1.85,4.49,4.49,0,0,0-.65-1.76c-.37-.65-.88-1.45-1.52-2.41A3.89,3.89,0,0,1,889.52,600.46ZM862,604.8q2.73-1.93,5.63-3.78c1.93-1.23,3.85-2.43,5.78-3.61a3.34,3.34,0,0,1,3.7-.33c1.18.76,2.33,1.43,3.46,2a21.21,21.21,0,0,1,3.29,2.17q2.57,1.77.32,3.54A38.68,38.68,0,0,1,872,611.31a25.62,25.62,0,0,1-13.82.24c-.11,0-.27-.11-.49-.32-.1,0-.32-.22-.64-.65A15,15,0,0,1,862,604.8Zm37.45-69.43a16.59,16.59,0,0,1-1.45-1,4.32,4.32,0,0,1-1.12-1.29,11,11,0,0,1-1.29-2.33c-.32-.8-.64-1.58-1-2.33a1.68,1.68,0,0,1,.8-.64c.54.75,1.1,1.5,1.69,2.25s1.15,1.44,1.69,2.09a3.69,3.69,0,0,0,2.33,1.52,10.77,10.77,0,0,0,3,.08C902.75,535.59,901.19,536.12,899.48,535.37Z"/><path class="cls-2" d="M951.24,584.38A1087,1087,0,0,1,776.81,632.5c-51.16,9.58-87.12,12.41-135.28,16.2,0,0-38.54,3-65.43.63-17.58-1.54-32.75-3.77-32.75-3.77-7.05-.88-16-2.16-26.3-4-17.68-3.14-31.27-6.48-37.16-8-39.28-10-73.43-24.39-86.62-31.16-2.19-1.13-11.76-6.12-25-12.08-2.75-1.24-5-2.21-6.21-2.74A49.69,49.69,0,0,0,364.7,594c7.56,15.13,23.45,27.59,50.09,46.91,1,.7,3.64,2.66,3.34,4.59-.18,1.19-1.75,2.17-4.79,3.47-4.46,1.9-6.56,3.13-7.5,3.45-6.35,2.17-36.5,18.72-55.76,51.86-1.57,2.72-2.82,5.09-3.73,6.92-2.29,4-5,9.15-7.68,15.24-.74,1.66-3.56,8.11-5.85,15.12a116.72,116.72,0,0,0-6.44,34.25,112.93,112.93,0,0,0,9,46.83c.83,2,1.58,3.66,2.09,4.76a64.51,64.51,0,0,0,11.89,12.86c4.4,3.6,21.81,16.88,45.49,14.55,5.15-.5,17.7-1.9,28.34-11.18a38.56,38.56,0,0,0,8.27-9.66c7.95-14.05,12-29,10.86-45.67-2.25-32.63,2.86-63.95,21.8-91.68,4.25-6.22,7.53-13.23,14.07-17.85a7.47,7.47,0,0,1,3.32-1.48,6.71,6.71,0,0,1,3.28.44l.27.11c.44.2,103.41,42.54,255.64,5.79C834.67,661,905.53,618.25,951.24,584.38ZM462.56,686.28a37.61,37.61,0,0,1-3.87,2.07l-3.94,2a98.43,98.43,0,0,0-12.12,10.77,93.64,93.64,0,0,0-16.1,22.76,85.49,85.49,0,0,0-4.47,10.77c-.85,1.87-2.15,4.8-3.6,8.46-3,7.56-3.63,10.59-6.07,15.95a79.1,79.1,0,0,1-5.45,10,1.61,1.61,0,0,0-.32-1.1c-.48-10.73.59-21.36,1.95-32,2.87-15.48,9.6-29.34,17.94-42.52a12.73,12.73,0,0,1-.17-1.29,12.73,12.73,0,0,0,.17,1.29,53.73,53.73,0,0,1,14.23-13.1,55,55,0,0,1,5-2.76,29.82,29.82,0,0,1,6-2.21c6.77-1.33,15.08,4.36,14.63,7.45C466.22,683.9,464.92,684.74,462.56,686.28Z"/></svg>