<?xml version="1.0" encoding="UTF-8"?>
<svg id="Layer_1" data-name="Layer 1" xmlns="http://www.w3.org/2000/svg" viewBox="0 0 950.56 854.79">
  <defs>
    <style>
      .cls-1 {
        fill: #23301b;
      }
    </style>
  </defs>
  <path class="cls-1" d="M688.36,615.48c7.16,2.05,14.84,3.58,23.05,4.6h-155.34c45.7-21.47,81.46-60.6,98.5-108.59v34.12c0,15.87,1.41,28.42,4.23,37.62,2.82,9.22,6.66,16.39,11.52,21.5,4.86,5.11,10.88,8.7,18.05,10.75Zm0-528.23c7.16-2.05,14.84-3.59,23.05-4.61h-133.53c35.21,22.6,62.47,56.49,76.69,96.56v-22.08c0-15.86,1.41-28.41,4.23-37.62,2.82-9.2,6.66-16.37,11.52-21.49,4.86-5.11,10.88-8.7,18.05-10.75Zm-96.34,389.28v-.6c-3.38-12.1-8.65-23.07-15.85-32.9-13.56-18.49-30.64-34.91-51.23-49.24-20.6-14.33-42.76-27.75-66.48-40.26-23.73-12.5-45.89-25.92-66.48-40.25-12.72-8.84-24.1-18.54-34.14-29.09v261.47c0,11.97,.8,22.04,2.42,30.22-37.18-32.22-60.69-79.78-60.69-132.84V247.63c0-97.04,78.67-175.71,175.71-175.71h0c97.04,0,175.71,78.67,175.71,175.71v195.41c0,53.45-23.87,101.31-61.52,133.54,1.69-8.3,2.54-18.6,2.54-30.92v-69.13Zm0-112.11V170.58c-1.51-6.4-3.39-12.45-5.67-18.12-6.78-16.9-15.64-30.81-26.58-41.73-10.94-10.92-23.46-18.98-37.52-24.18-14.08-5.2-28.41-7.81-43-7.81-13.04,0-25.93,2.09-38.7,6.26-12.77,4.16-24.1,10.42-34,18.75-9.9,8.34-17.86,18.24-23.85,29.7-5.99,11.46-8.99,24.75-8.99,39.86,0,22.42,7.17,41.82,21.51,58.22,14.34,16.41,32.08,31.52,53.22,45.33,21.12,13.81,44.21,27.23,69.25,40.25,25.03,13.02,48.12,27.48,69.25,43.37,1.72,1.29,3.41,2.61,5.09,3.94ZM281.01,98c4.86,5.11,8.69,12.28,11.51,21.49,2.82,9.22,4.23,21.76,4.23,37.62v19.98c14.42-39.15,41.35-72.25,75.94-94.46H239.16c8.69,1.02,16.62,2.57,23.79,4.61,7.17,2.05,13.19,5.64,18.06,10.75Zm15.74,415.59v32.02c0,15.87-1.41,28.42-4.23,37.62-2.82,9.22-6.65,16.39-11.51,21.5-4.86,5.11-10.89,8.7-18.06,10.75-7.17,2.05-15.1,3.58-23.79,4.6h155.34c-45.03-21.16-80.42-59.45-97.75-106.49Z"/>
  <path class="cls-1" d="M155.91,719.41v40.27c0,3.65,.64,3.86,4.29,3.86h1v1h-18.24v-1h1c3.65,0,4.29-.22,4.29-3.86v-20.46h-21.39v20.46c0,3.65,.64,3.86,4.29,3.86h1v1h-18.17v-1h1c3.65,0,4.29-.22,4.29-3.86v-40.27c0-3.65-.65-3.93-4.29-3.93h-1v-1h18.17v1h-1c-3.65,0-4.29,.29-4.29,3.93v18.74h21.39v-18.74c0-3.65-.64-3.93-4.29-3.93h-1v-1h18.24v1h-1c-3.65,0-4.29,.29-4.29,3.93Zm59.21,32.26v12.87h-34.47v-1h1c3.65,0,4.29-.22,4.29-3.86v-40.27c0-3.65-.65-3.93-4.29-3.93h-1v-1h33.05v12.87h-1v-4.29c0-6.58-.86-7.58-6.94-7.58h-12.16v23.03h4.94c6.15,0,7.01-1.29,7.01-7.94v-2.5h.93v21.96h-.93v-2.51c0-6.65-.86-7.94-7.01-7.94h-4.94v23.96h13.59c6.08,0,6.94-.93,6.94-7.58v-4.29h1Zm61.44-1.36c0,9.8-8.22,14.23-20.6,14.23h-21.39v-1h1c3.65,0,4.29-.22,4.29-3.86v-40.27c0-3.65-.65-3.93-4.29-3.93h-1v-1h17.6c12.66,0,20.67,2.86,20.67,11.37,0,6.29-4.44,9.51-11.8,10.73,9.37,1.14,15.52,5.51,15.52,13.73Zm-29.11-14.09h2.14c13.45,0,15.67-4.29,15.67-10.37s-2.22-10.37-15.67-10.37h-2.14v20.74Zm21.53,14.09c0-7.01-3.43-13.02-16.02-13.09h-5.51v26.32h6.01c12.95,0,15.52-6.15,15.52-13.23Zm80.39,21.6v.93c-16.81,.86-21.68-3.93-27.25-18.6-2.65-6.94-4.15-15.95-12.02-15.95h-1.72v-.93c11.66,0,15.67-3.93,15.67-10.51s-3.43-11.37-15.67-11.37h-.86v44.21c0,3.65,.65,3.86,4.29,3.86h1v1h-18.24v-1h1c3.65,0,4.29-.22,4.29-3.86v-40.27c0-3.65-.65-3.93-4.29-3.93h-1v-1h15.52c12.52,0,21.6,3.43,21.6,12.37,0,7.3-7.01,10.37-15.81,11.23,7.01,1.5,9.73,6.8,12.95,13.09,5.22,10.16,8.22,21.03,20.53,20.74Zm59.07-32.4c0,15.16-13.3,25.68-28.68,25.68s-28.68-10.51-28.68-25.68,13.3-25.68,28.68-25.68,28.68,10.44,28.68,25.68Zm-8.08,0c0-13.88-7.08-24.82-20.6-24.82s-20.67,10.94-20.67,24.82,7.08,24.82,20.67,24.82,20.6-10.94,20.6-24.82Zm67.09-25.04v1h-1c-3.65,0-4.29,.29-4.29,3.93v45.13h-1.79l-26.11-45.99v41.13c0,3.65,.64,3.86,4.29,3.86h1v1h-11.66v-1h1c3.65,0,4.29-.22,4.29-3.86v-40.27c0-3.65-.65-3.93-4.29-3.93h-1v-1h12.8l20.39,35.91v-30.97c0-3.65-.64-3.93-4.29-3.93h-1v-1h11.66Zm107.93,45.99c-7.73,6.94-17.67,5.22-23.6,.43-13.38,8.3-31.26,3.79-33.83-6.08-2.15-8.22,6.15-13.95,12.52-16.31-2.79-3.51-5.65-8.8-5.94-11.95-.79-7.65,5.36-12.73,14.45-12.73,7.94,0,14.52,4.58,13.95,10.87-.64,6.58-7.87,9.23-14.23,11.87,3.29,3.93,10.37,11.59,16.52,17.81,.43,.43,.72,.64,1.07,1.07,2.86-3.15,5.15-6.87,6.8-9.8l.86,.72c-1.64,3-3.86,6.72-6.79,9.87,5.08,4.79,10.23,7.37,17.81,3.43l.43,.79Zm-24.61-.43c-.93-.79-1.5-1.36-2.22-2.15-5.51-5.58-14.52-15.38-17.24-18.52-4.86,2.57-8.51,7.94-4.94,16.09,4.22,9.51,17.24,8.8,24.39,4.58Zm-12.8-24.46c5.79-3.15,7.8-6.44,8.44-10.8,.64-5.29-1.86-9.3-6.22-9.94-7.01-1.07-15.59,7.08-2.21,20.74Zm117.44,17.38c-1.22,7.08-7.37,12.23-15.38,12.23-8.65,0-11.3-5.79-14.59-5.79-1.86,0-2,3.22-2,5.15h-1l-.22-17.95,1-.07c2.22,14.95,11.87,17.81,15.95,17.81,5.72,0,10.16-2.5,10.87-9.3,.93-7.8-7.94-10.94-15.24-14.73-8.01-4.15-11.37-9.08-10.16-16.24,1.07-6.87,8.08-10.23,13.09-10.23,7.15,0,10.01,5.58,12.59,5.58,1.86,0,1.57-1.79,1.57-3.72v-1h1l.14,17.95-1,.14c-1.5-12.37-8.15-18.1-13.52-18.1-4.15,0-8.01,2.29-8.37,7.37-.43,6.08,4,9.44,12.02,13.09,9.73,4.37,14.81,8.73,13.23,17.81Zm57.58,10.59v1h-17.02v-1h.43c3.65,0,4.22-.64,3.08-4.22l-3.72-12.16h-13.8l-3.86,12.52c-1.15,3.58-.43,3.86,3.22,3.86h.43v1h-10.16v-1h1.14c2.58,0,3.36-1.14,4.01-3.08l14.23-45.99h2.14l14.88,46.28c.65,2.01,1.29,2.79,3.93,2.79h1.07Zm-17.6-17.53l-6.58-21.1-6.51,21.1h13.09Zm89.4-5.15v1h-.57c-3.65,0-4.29,.29-4.29,3.93v10.37c-4.94,6.65-15.24,9.01-21.89,9.01-17.09,0-29.9-10.51-29.9-25.75,0-16.52,14.16-25.61,29.11-25.61,11.16,0,15.45,5.87,18.45,5.87,2.22,0,1.86-2.51,1.86-4.44v-.57h1l.22,17.95-1,.14c-1.72-12.37-9.58-18.1-20.53-18.1-12.23,0-21.03,8.23-21.03,24.75,0,13.88,6.51,24.89,21.46,24.89,5.22,0,11.16-1.72,14.66-8.15v-10.37c0-3.65-.64-3.93-4.29-3.93h-4.93v-1h21.67Zm51.78,10.8v12.87h-34.47v-1h1c3.65,0,4.29-.22,4.29-3.86v-40.27c0-3.65-.65-3.93-4.29-3.93h-1v-1h33.05v12.87h-1v-4.29c0-6.58-.86-7.58-6.94-7.58h-12.16v23.03h4.94c6.15,0,7.01-1.29,7.01-7.94v-2.5h.93v21.96h-.93v-2.51c0-6.65-.86-7.94-7.01-7.94h-4.94v23.96h13.59c6.08,0,6.94-.93,6.94-7.58v-4.29h1Z"/>
</svg>