<?xml version="1.0" encoding="UTF-8"?>
<svg id="Layer_1" data-name="Layer 1" xmlns="http://www.w3.org/2000/svg" xmlns:xlink="http://www.w3.org/1999/xlink" viewBox="0 0 1080 405.38">
  <defs>
    <style>
      .cls-1 {
        letter-spacing: -.08em;
      }

      .cls-2 {
        fill: url(#linear-gradient);
      }

      .cls-3 {
        letter-spacing: -.12em;
      }

      .cls-4 {
        fill: #fff;
      }

      .cls-5 {
        letter-spacing: -.06em;
      }

      .cls-6 {
        letter-spacing: -.06em;
      }

      .cls-7 {
        font-size: 27.72px;
      }

      .cls-7, .cls-8 {
        fill: #1b263d;
        font-family: TrajanPro3-Regular, 'Trajan Pro 3';
      }

      .cls-9 {
        letter-spacing: -.07em;
      }

      .cls-10 {
        letter-spacing: -.11em;
      }

      .cls-11 {
        letter-spacing: -.06em;
      }

      .cls-12 {
        letter-spacing: -.06em;
      }

      .cls-13 {
        letter-spacing: -.05em;
      }

      .cls-14 {
        letter-spacing: -.05em;
      }

      .cls-15 {
        letter-spacing: -.05em;
      }

      .cls-16 {
        letter-spacing: -.05em;
      }

      .cls-17 {
        letter-spacing: -.05em;
      }

      .cls-18 {
        letter-spacing: -.05em;
      }

      .cls-19 {
        letter-spacing: -.07em;
      }

      .cls-20 {
        letter-spacing: -.07em;
      }

      .cls-21 {
        letter-spacing: -.07em;
      }

      .cls-22 {
        letter-spacing: -.07em;
      }

      .cls-23 {
        letter-spacing: -.06em;
      }

      .cls-24 {
        letter-spacing: -.03em;
      }

      .cls-25 {
        letter-spacing: -.07em;
      }

      .cls-8 {
        font-size: 36.96px;
      }

      .cls-26 {
        letter-spacing: -.06em;
      }

      .cls-27 {
        letter-spacing: -.06em;
      }

      .cls-28 {
        letter-spacing: -.07em;
      }

      .cls-29 {
        letter-spacing: -.07em;
      }

      .cls-30 {
        letter-spacing: -.07em;
      }

      .cls-31 {
        letter-spacing: -.03em;
      }

      .cls-32 {
        letter-spacing: -.03em;
      }
    </style>
    <linearGradient id="linear-gradient" x1="102.1" y1="202.69" x2="253.05" y2="202.69" gradientUnits="userSpaceOnUse">
      <stop offset="0" stop-color="#1d6480"/>
      <stop offset=".11" stop-color="#165071"/>
      <stop offset=".27" stop-color="#0f3b62"/>
      <stop offset=".45" stop-color="#0a2c57"/>
      <stop offset=".66" stop-color="#072350"/>
      <stop offset=".97" stop-color="#07214f"/>
    </linearGradient>
  </defs>
  <text class="cls-8" transform="translate(275.12 231.53)"><tspan class="cls-26" x="0" y="0">J</tspan><tspan class="cls-25" x="13.16" y="0">U</tspan><tspan class="cls-5" x="41.21" y="0">S</tspan><tspan class="cls-14" x="60.06" y="0">T</tspan><tspan class="cls-23" x="83.74" y="0">I</tspan><tspan class="cls-29" x="97.6" y="0">C</tspan><tspan class="cls-15" x="124.77" y="0">E RE</tspan><tspan class="cls-21" x="202.34" y="0">S</tspan><tspan class="cls-24" x="220.93" y="0">E</tspan><tspan class="cls-14" x="242.25" y="0">A</tspan><tspan class="cls-17" x="266.27" y="0">R</tspan><tspan class="cls-29" x="292.48" y="0">C</tspan><tspan class="cls-15" x="319.64" y="0">H I</tspan><tspan class="cls-20" x="377.77" y="0">N</tspan><tspan class="cls-5" x="410.3" y="0">S</tspan><tspan class="cls-15" x="429.15" y="0">TI</tspan><tspan class="cls-32" x="467.25" y="0">T</tspan><tspan class="cls-12" x="491.82" y="0">U</tspan><tspan class="cls-15" x="520.43" y="0">TE </tspan><tspan class="cls-3" x="574.98" y="0">L</tspan><tspan class="cls-14" x="592.38" y="0">T</tspan><tspan class="cls-10" x="616.07" y="0">D</tspan><tspan class="cls-14" x="645.9" y="0">. GT</tspan><tspan class="cls-1" x="717.15" y="0">E</tspan><tspan class="cls-14" x="736.81" y="0">.</tspan></text>
  <text class="cls-7" transform="translate(274.98 269.1)"><tspan class="cls-13" x="0" y="0">I</tspan><tspan class="cls-19" x="10.81" y="0">N</tspan><tspan class="cls-6" x="35.2" y="0">S</tspan><tspan class="cls-16" x="49.34" y="0">TI</tspan><tspan class="cls-31" x="77.91" y="0">T</tspan><tspan class="cls-11" x="96.35" y="0">U</tspan><tspan class="cls-16" x="117.8" y="0">T </tspan><tspan class="cls-22" x="143.19" y="0">D</tspan><tspan class="cls-16" x="166.8" y="0">E RE</tspan><tspan class="cls-30" x="224.98" y="0">C</tspan><tspan class="cls-16" x="245.36" y="0">H</tspan><tspan class="cls-9" x="270.52" y="0">E</tspan><tspan class="cls-18" x="285.44" y="0">R</tspan><tspan class="cls-28" x="305.09" y="0">C</tspan><tspan class="cls-13" x="325.46" y="0">HE </tspan><tspan class="cls-27" x="373.77" y="0">J</tspan><tspan class="cls-16" x="383.64" y="0">U</tspan><tspan class="cls-22" x="405.26" y="0">DI</tspan><tspan class="cls-28" x="439.27" y="0">C</tspan><tspan class="cls-13" x="459.64" y="0">IARIE</tspan></text>
  <rect class="cls-2" x="102.1" y="127.22" width="150.94" height="150.94"/>
  <g>
    <rect class="cls-4" x="160.87" y="151.79" width="26.25" height="3.23"/>
    <rect class="cls-4" x="160.87" y="250.93" width="26.25" height="3.23"/>
    <path class="cls-4" d="M227.5,243.72c-.69,0-2.32,0-4.52-.32-2.9-.42-7.87-1.59-14.13-7.65-6.72-6.58-14.59-16.03-24.09-27.18,10.42-8.81,14.01-16.67,14.01-24.53,0-7.33-5.1-12.53-7.99-14.44-4.47-2.94-9.79-4.07-15.17-4.47v4.07c8.44,2.4,13.43,9.64,13.43,20.36,0,8.07-3.01,13.8-7.06,16.35-1.95,1.24-4.21,1.75-6.37,1.93v3.39c.55,.04,.87,.25,1.27,.63,2.32,2.76,7.76,9.88,12.62,15.72,6.6,7.96,10.65,13.17,15.63,15.61,3.01,1.49,5.91,2.02,12.39,2.02h8.22c2.08,0,2.78-.21,2.78-.85,0-.32-.46-.64-1.04-.64Z"/>
    <path class="cls-4" d="M169.4,165.79c-2.49,.06-4.66,.13-4.96,.13-.58,0-7.99-.25-13.2-.25-1.27,0-1.74,.25-1.74,.57s.46,.57,1.27,.57c1.04,0,2.66,.08,3.59,.25,3.82,.57,4.75,1.88,4.98,4.67,.23,2.62,.23,4.91,.23,17.68v23.66c0,21.12-3.59,25.46-11.12,30.86-1.04,.74-2.66,1.72-4.05,2.29-1.04,.49-1.62,.74-1.62,1.23,0,.33,.46,.49,.81,.49s.58-.08,.81-.16c1.16-.41,3.01-1.31,4.52-2.05,9.38-4.58,14.48-8.43,16.91-12.52,3.47-5.81,3.47-10.89,3.47-24.15v-19.65c0-9.54,0-13.23,.1-15.58v-8.04Z"/>
  </g>
</svg>