<?xml version="1.0" encoding="UTF-8"?>
<svg id="Layer_1" data-name="Layer 1" xmlns="http://www.w3.org/2000/svg" xmlns:xlink="http://www.w3.org/1999/xlink" viewBox="0 0 1080 1080">
  <defs>
    <style>
      .cls-1 {
        fill: none;
        stroke: #9d7967;
        stroke-miterlimit: 10;
        stroke-width: 3px;
      }

      .cls-2 {
        fill: url(#linear-gradient);
      }

      .cls-3 {
        fill: url(#linear-gradient-3);
      }

      .cls-4 {
        fill: url(#linear-gradient-2);
      }
    </style>
    <linearGradient id="linear-gradient" x1="494.97" y1="463.45" x2="617.07" y2="463.45" gradientUnits="userSpaceOnUse">
      <stop offset="0" stop-color="#9d7967"/>
      <stop offset=".18" stop-color="#977463"/>
      <stop offset=".4" stop-color="#886959"/>
      <stop offset=".65" stop-color="#6f5549"/>
      <stop offset=".91" stop-color="#4c3b33"/>
      <stop offset="1" stop-color="#3f312b"/>
    </linearGradient>
    <linearGradient id="linear-gradient-2" x1="477.45" y1="551.47" x2="599.96" y2="551.47" xlink:href="#linear-gradient"/>
    <linearGradient id="linear-gradient-3" x1="311.14" y1="720.87" x2="783.38" y2="720.87" xlink:href="#linear-gradient"/>
  </defs>
  <g>
    <path class="cls-2" d="M589.25,409.08c-15.97-4.73-30.14-2.15-35.39-1.14-26.56,5.12-48.26,23.1-55.85,43.79-4.61,12.56-2.73,23.23-2.19,25.98,1.02,5.1,4.04,16.45,14.57,26.59,10.67,10.28,25.26,16.08,25.12,16.25-.05,.06-1.75-.53-3.13-1.66-5.74-4.72-1.48-15.31,.6-20.54,1.25-3.14,3.66-8.98,9.56-15.58,8.24-9.22,18.02-14,24.24-16.98,6.72-3.21,6.42-2.19,24.68-9.23,16.95-6.53,20.04-8.5,22.36-11.7,5.51-7.59,2.48-16.27,2.11-17.29-4.38-11.9-19.94-16.51-26.66-18.5Z"/>
    <path class="cls-4" d="M504.71,600.92c15.83,4.92,30.03,2.98,35.29,2.2,26.6-3.92,48.6-19.97,56.59-39,4.85-11.55,3.19-21.56,2.7-24.14-.91-4.78-3.71-15.46-14.01-25.25-10.44-9.92-24.88-15.8-24.74-15.95,.05-.05,1.74,.55,3.09,1.65,5.63,4.58,1.17,14.31-1,19.12-1.31,2.89-3.83,8.25-9.84,14.2-8.4,8.32-18.25,12.46-24.52,15.04-6.77,2.78-6.45,1.84-24.8,7.8-17.04,5.54-20.16,7.28-22.54,10.18-5.65,6.9-2.8,15.08-2.45,16.04,4.14,11.23,19.56,16.02,26.23,18.1Z"/>
  </g>
  <circle class="cls-1" cx="547.26" cy="505.24" r="135.04"/>
  <path class="cls-3" d="M376.78,686.65v13.73c-13.21-26.8-37-28.76-49.03-20.4-10.2,6.67-9.15,21.05,22.75,35.96,14.25,6.14,27.85,13.6,27.85,29.03,0,7.06-2.88,12.55-7.58,16.34-14.91,11.38-44.85,6.14-59.62-12.81v-18.17c12.81,32.43,42.1,43.8,58.58,29.94,8.63-7.19,6.28-20.66-24.19-34.65-13.99-6.28-27.72-13.73-27.72-28.64,0-29.16,47.72-28.5,58.97-10.33Zm72.56,44.98c-22.23,2.09-27.33,15.56-31.51,25.1-2.48,6.54-4.71,11.38-10.59,11.11-.78-.13-1.18-.13-2.09-.92-3.53-1.57-4.97-5.49-4.31-11.38,.65-5.75,2.48-13.07,5.62-21.44,6.93-18.7,18.7-42.5,28.63-59.36h.92l39.09,92.31h-10.98l-14.78-35.43Zm-19.61-45.63c-7.98,15.43-16.87,33.21-22.36,48.38-3.14,8.37-4.97,15.56-5.62,21.18-.26,5.36,.65,9.41,3.79,10.46,.78,.26,1.18,.26,1.83,.65,5.23,.39,7.32-4.18,9.41-10.2,4.31-9.81,9.54-23.54,32.16-25.76l-19.22-44.72Zm119.76,81.07h-52.17v-92.31h10.46v91.26h22.1c11.24,0,17.91-5.1,22.75-18.31l-3.14,19.35Zm77.53,0h-52.17v-92.31h10.46v91.26h22.1c11.24,0,17.91-5.1,22.75-18.31l-3.14,19.35Zm41.44-41.58v41.58h-10.33v-38.83l-31.9-53.61h11.77l20.14,33.86,9.68,16.08,21.57-41.84c2.75-5.36-1.44-7.85-3.92-8.11h14.78c-3.4,.26-8.37,5.1-9.28,7.45l-22.49,43.41Zm81.84,40.8c16.21,0,22.62-.79,32.03-9.55v10.33h-59.88l48.64-91.4h-16.61c-16.08,0-22.49,.39-32.03,9.15v-10.2h60.93l-49.16,91.66h16.08Z"/>
</svg>