<?xml version="1.0" encoding="UTF-8"?>
<svg id="Layer_1" data-name="Layer 1" xmlns="http://www.w3.org/2000/svg" xmlns:xlink="http://www.w3.org/1999/xlink" viewBox="0 0 619.74 391.01">
  <defs>
    <style>
      .cls-1 {
        fill: url(#linear-gradient);
      }

      .cls-2 {
        fill: #063a4c;
      }
    </style>
    <linearGradient id="linear-gradient" x1="189.7" y1="279.76" x2="73.93" y2="42.4" gradientUnits="userSpaceOnUse">
      <stop offset="0" stop-color="#3eb4ea"/>
      <stop offset=".15" stop-color="#37c1cf"/>
      <stop offset=".31" stop-color="#31ccb9"/>
      <stop offset=".5" stop-color="#2dd3aa"/>
      <stop offset=".7" stop-color="#2ad8a0"/>
      <stop offset="1" stop-color="#2ada9e"/>
    </linearGradient>
  </defs>
  <path class="cls-1" d="M164.62,169.11c3.34-.45,6.68-.95,10.02-1.45,8.02-1.21,16.03-2.35,24.18-1.53,10.94,1.1,19.27,6.1,24.4,16.04,3.52,6.82,5.12,14.16,5.65,21.71,.28,4.04,.33,8.04,.16,11.99-1.37-1.36-2.74-2.71-4.12-4.06-9.74-9.53-19.1-19.53-29.48-28.31-9.2-7.78-19.58-12.6-30.81-14.4Zm-66.78,32.49c10.54-19.25,26.86-30.38,48.65-32.84,.11-.01,.22-.02,.33-.03-.79-.11-1.58-.22-2.37-.32-7.69-.97-15.39-2.02-23.12-2.49-6.56-.4-13.01,.81-18.85,4.12-7.32,4.15-11.44,10.79-14,18.54-3.16,9.57-3.74,19.44-2.99,29.4,.61,8.2,2.09,16.15,4.57,23.82-2.13-13.9,.74-27.34,7.79-40.2Zm125.29,38.65c-5.65-5.59-11.31-11.17-16.88-16.84-1.31-1.33-2.24-1.57-3.94-.49-15.82,10.06-31.7,20.01-47.57,29.99-3.85,2.42-5.56,2.24-8.8-.97-4.14-4.11-8.26-8.23-12.72-12.67,18.38-11.22,36.51-22.28,54.66-33.36-7.56-10.49-22.95-18.35-39.93-15.63-18.77,3.01-33.86,18.9-36.43,37.68-2.74,19.98,10.07,37.07,26.56,45.22,15.71,7.77,33.29,1.93,42.12-5.7-3.39-3.38-6.77-6.75-10.4-10.37,4.31-2.69,8.18-5.27,12.22-7.55,2.2-1.24,4.71-.94,6.53,.85,6.77,6.63,13.44,13.38,20.13,20.09,3.94-4.51,7.26-9.57,10.03-15.1,2.31-4.6,4.23-9.29,5.76-14.05-.46-.34-.91-.71-1.33-1.12Zm-97.35-86.89c2.87,1.29,5.89,2.39,8.95,3.09,5.63,1.29,11.36,1.88,17.26,1.45,.4-6.57-.14-12.95-1.83-19.23-2.33-8.63-6.77-15.67-15.06-19.72-8.36-4.09-17.29-5.1-26.46-4.72-.09,0-.17,.14-.37,.31-.19,8.23,.57,16.41,3.79,24.2,2.72,6.6,7.16,11.68,13.72,14.62Z"/>
  <g>
    <path class="cls-2" d="M250.61,218.15v-33.99h-12.67v-2.85h28.45v2.85h-12.67v33.99h-3.1Z"/>
    <path class="cls-2" d="M271.98,218.15v-36.84h3.1v16.28h22.29v-16.28h3.1v36.84h-3.1v-17.71h-22.29v17.71h-3.1Z"/>
    <path class="cls-2" d="M309.12,218.15v-36.84h20.4v2.85h-17.3v13.43h15.32v2.85h-15.32v14.86h17.76v2.85h-20.86Z"/>
    <path class="cls-2" d="M346.52,199.78c0-5.43,1.8-9.96,5.39-13.59,3.6-3.63,8.23-5.44,13.89-5.44,3.94,0,7.55,.95,10.84,2.85v3.56c-3.19-2.34-6.84-3.51-10.94-3.51-4.75,0-8.62,1.54-11.6,4.61-2.99,3.07-4.48,6.89-4.48,11.47s1.48,8.37,4.45,11.47c2.97,3.1,6.86,4.66,11.68,4.66,3.36,0,6.31-.73,8.85-2.19v-10.33h-9.36v-2.85h12.47v14.76c-3.53,2.31-7.6,3.46-12.21,3.46-5.46,0-9.99-1.81-13.59-5.42s-5.39-8.12-5.39-13.51Z"/>
    <path class="cls-2" d="M388.76,213.21c-3.56-3.66-5.34-8.16-5.34-13.48s1.78-9.82,5.34-13.48c3.56-3.66,7.97-5.5,13.23-5.5s9.67,1.83,13.23,5.5c3.56,3.66,5.34,8.16,5.34,13.48s-1.78,9.82-5.34,13.48c-3.56,3.66-7.97,5.5-13.23,5.5s-9.67-1.83-13.23-5.5Zm2.16-24.91c-2.93,3.1-4.4,6.91-4.4,11.42s1.47,8.32,4.4,11.42c2.93,3.1,6.62,4.66,11.07,4.66s8.13-1.55,11.07-4.66c2.93-3.1,4.4-6.91,4.4-11.42s-1.47-8.32-4.4-11.42c-2.93-3.1-6.62-4.66-11.07-4.66s-8.13,1.55-11.07,4.66Z"/>
    <path class="cls-2" d="M425.96,215.65v-3.46c3.09,2.41,6.68,3.61,10.79,3.61,2.58,0,4.65-.62,6.21-1.86,1.56-1.24,2.34-3.01,2.34-5.32,0-.75-.11-1.44-.33-2.09-.22-.64-.45-1.19-.69-1.63-.24-.44-.66-.87-1.27-1.3-.61-.42-1.09-.75-1.45-.97-.36-.22-.97-.48-1.86-.79-.88-.31-1.5-.51-1.86-.61-.36-.1-1.04-.29-2.06-.56-1.25-.34-2.31-.66-3.15-.97-.85-.31-1.77-.74-2.77-1.3-1-.56-1.81-1.17-2.42-1.83-.61-.66-1.12-1.5-1.53-2.52-.41-1.02-.61-2.17-.61-3.46,0-3.09,1.03-5.5,3.08-7.25,2.05-1.75,4.77-2.62,8.17-2.62,4.04,0,7.48,.97,10.33,2.9v3.36c-3.12-2.24-6.58-3.36-10.38-3.36-2.48,0-4.44,.59-5.9,1.76-1.46,1.17-2.19,2.84-2.19,5.01,0,1.19,.2,2.21,.61,3.05,.41,.85,1.14,1.56,2.19,2.14,1.05,.58,1.91,.98,2.57,1.22,.66,.24,1.77,.58,3.33,1.02,.24,.07,.41,.12,.51,.15,1.29,.37,2.35,.7,3.18,.99,.83,.29,1.78,.72,2.85,1.3,1.07,.58,1.91,1.21,2.52,1.88,.61,.68,1.14,1.56,1.58,2.65,.44,1.09,.66,2.31,.66,3.66,0,3.19-1.06,5.69-3.18,7.51-2.12,1.82-4.95,2.72-8.47,2.72-4.17,0-7.77-1.02-10.79-3.05Z"/>
    <path class="cls-2" d="M454.71,218.15v-36.84h9.62c4.82,0,8.41,.78,10.79,2.34,2.99,1.97,4.48,4.75,4.48,8.35s-1.44,6.46-4.32,8.4c-2.34,1.6-6.17,2.39-11.5,2.39h-5.95v15.37h-3.1Zm3.1-18.12h6.31c4.34,0,7.45-.64,9.31-1.93,2-1.39,3-3.39,3-6s-1.09-4.77-3.26-6.16c-1.83-1.19-4.85-1.78-9.06-1.78h-6.31v15.88Z"/>
    <path class="cls-2" d="M485.59,218.15v-36.84h20.4v2.85h-17.3v13.43h15.32v2.85h-15.32v14.86h17.76v2.85h-20.86Z"/>
    <path class="cls-2" d="M513.17,218.15v-36.84h3.1v33.99h18.27v2.85h-21.37Z"/>
    <path class="cls-2" d="M245.7,276.29v-37.55h20.79v2.9h-17.63v13.69h15.61v2.9h-15.61v15.14h18.1v2.9h-21.26Z"/>
    <path class="cls-2" d="M291.02,247.04l5.81-8.3h3.58l-12.39,17.63,14.16,19.91h-3.79l-6.95-9.8c-2.21-3.15-4.05-5.79-5.5-7.93h-.1c-1.28,1.87-3.13,4.51-5.55,7.93l-6.95,9.8h-3.58l14.16-19.91-12.39-17.63h3.79l5.6,8.04c2,2.87,3.7,5.34,5.08,7.42h.1c1.35-2,2.99-4.39,4.93-7.16Z"/>
    <path class="cls-2" d="M306.89,276.29v-37.55h9.8c4.91,0,8.57,.8,10.99,2.39,3.04,2.01,4.56,4.84,4.56,8.51s-1.47,6.59-4.41,8.56c-2.39,1.63-6.29,2.44-11.72,2.44h-6.07v15.66h-3.16Zm3.16-18.46h6.43c4.42,0,7.59-.66,9.49-1.97,2.04-1.42,3.06-3.46,3.06-6.12s-1.11-4.86-3.32-6.27c-1.87-1.21-4.94-1.81-9.23-1.81h-6.43v16.18Z"/>
    <path class="cls-2" d="M338.37,276.29v-37.55h20.79v2.9h-17.63v13.69h15.61v2.9h-15.61v15.14h18.1v2.9h-21.26Z"/>
    <path class="cls-2" d="M366.47,276.29v-37.55h10.06c4.63,0,8.09,.74,10.37,2.23,2.9,1.9,4.36,4.6,4.36,8.09s-1.32,6.03-3.94,7.93c-1.49,1.11-3.51,1.85-6.07,2.23l12.55,17.06h-3.84l-12.24-16.8h-8.09v16.8h-3.16Zm3.16-19.5h7.88c3.7,0,6.43-.73,8.19-2.18,1.59-1.35,2.39-3.15,2.39-5.39,0-2.56-1.02-4.51-3.06-5.86-1.73-1.14-4.63-1.71-8.71-1.71h-6.69v15.14Z"/>
    <path class="cls-2" d="M399.09,276.29v-37.55h3.16v37.55h-3.16Z"/>
    <path class="cls-2" d="M411.07,276.29v-37.55h20.79v2.9h-17.63v13.69h15.61v2.9h-15.61v15.14h18.1v2.9h-21.26Z"/>
    <path class="cls-2" d="M442.24,276.29h-3.06v-37.55h3.01l17.17,22.87c2.14,2.87,4.49,6.05,7.05,9.54l.1-.05c-.04-2.42-.05-6.17-.05-11.25v-21.11h3.06v37.55h-3.01l-17.17-22.87c-2.14-2.87-4.49-6.05-7.05-9.54l-.1,.05c.03,2.42,.05,6.17,.05,11.25v21.11Z"/>
    <path class="cls-2" d="M476.15,257.57c0-5.46,1.82-10.06,5.45-13.79,3.63-3.73,8.33-5.6,14.11-5.6,3.53,0,6.88,.8,10.06,2.39v3.53c-2.97-1.97-6.33-2.96-10.06-2.96-4.84,0-8.78,1.57-11.82,4.69-3.04,3.13-4.56,7.03-4.56,11.69s1.54,8.57,4.62,11.69c3.08,3.13,7.07,4.69,11.98,4.69,3.91,0,7.42-1.09,10.53-3.27v3.53c-3.01,1.8-6.57,2.7-10.68,2.7-5.74,0-10.44-1.84-14.11-5.52-3.66-3.68-5.5-8.27-5.5-13.77Z"/>
    <path class="cls-2" d="M513.28,276.29v-37.55h20.79v2.9h-17.63v13.69h15.61v2.9h-15.61v15.14h18.1v2.9h-21.26Z"/>
  </g>
</svg>