<?xml version="1.0" encoding="UTF-8"?>
<svg id="Layer_1" data-name="Layer 1" xmlns="http://www.w3.org/2000/svg" xmlns:xlink="http://www.w3.org/1999/xlink" viewBox="0 0 945.76 1024.57">
  <defs>
    <style>
      .cls-1 {
        fill: url(#linear-gradient-5);
      }

      .cls-1, .cls-2, .cls-3, .cls-4, .cls-5, .cls-6, .cls-7, .cls-8, .cls-9, .cls-10, .cls-11 {
        stroke: #fff;
        stroke-miterlimit: 10;
        stroke-width: .25px;
      }

      .cls-2 {
        fill: url(#linear-gradient-6);
      }

      .cls-3 {
        fill: url(#linear-gradient-2);
      }

      .cls-4 {
        fill: url(#linear-gradient-4);
      }

      .cls-5 {
        fill: url(#linear-gradient-3);
      }

      .cls-6 {
        fill: url(#linear-gradient-9);
      }

      .cls-7 {
        fill: url(#linear-gradient-8);
      }

      .cls-8 {
        fill: url(#linear-gradient-7);
      }

      .cls-12 {
        fill: #ff2196;
      }

      .cls-9 {
        fill: url(#linear-gradient);
      }

      .cls-10 {
        fill: url(#linear-gradient-11);
      }

      .cls-11 {
        fill: url(#linear-gradient-10);
      }
    </style>
    <linearGradient id="linear-gradient" x1="184.88" y1="310.23" x2="284.5" y2="310.23" gradientUnits="userSpaceOnUse">
      <stop offset="0" stop-color="#1a1a1a"/>
      <stop offset="1" stop-color="#000"/>
    </linearGradient>
    <linearGradient id="linear-gradient-2" x1="394.08" y1="490.27" x2="432.33" y2="490.27" xlink:href="#linear-gradient"/>
    <linearGradient id="linear-gradient-3" x1="293.06" y1="320.39" x2="400.45" y2="320.39" xlink:href="#linear-gradient"/>
    <linearGradient id="linear-gradient-4" x1="178.1" y1="494.75" x2="382.72" y2="494.75" xlink:href="#linear-gradient"/>
    <linearGradient id="linear-gradient-5" x1="79.84" y1="752.88" x2="449.06" y2="752.88" xlink:href="#linear-gradient"/>
    <linearGradient id="linear-gradient-6" x1="324.94" y1="834.98" x2="435.31" y2="834.98" xlink:href="#linear-gradient"/>
    <linearGradient id="linear-gradient-7" x1="449.26" y1="666.32" x2="638.74" y2="666.32" xlink:href="#linear-gradient"/>
    <linearGradient id="linear-gradient-8" x1="85.46" y1="499.83" x2="185.67" y2="499.83" xlink:href="#linear-gradient"/>
    <linearGradient id="linear-gradient-9" x1="85.06" y1="661.86" x2="180.1" y2="661.86" xlink:href="#linear-gradient"/>
    <linearGradient id="linear-gradient-10" x1="84.66" y1="321.19" x2="177.9" y2="321.19" xlink:href="#linear-gradient"/>
    <linearGradient id="linear-gradient-11" x1="280.11" y1="839.68" x2="327.33" y2="839.68" xlink:href="#linear-gradient"/>
  </defs>
  <polygon class="cls-12" points="79.84 70.45 79.84 239.71 102.75 239.71 102.75 96.16 797.78 96.16 797.78 890.97 456.08 890.97 456.08 916.68 820.68 916.68 820.68 70.45 79.84 70.45"/>
  <g>
    <path class="cls-9" d="M226.92,386.24c-2.79-30.41-3.92-49.87-3.39-58.38,.26-3.98,1.62-7.57,4.09-10.76,2.45-3.19,5.08-4.78,7.87-4.78,4.78,0,7.7,5.05,8.77,15.14,1.59,16.07,2.19,40.91,1.79,74.51l37.66-2.59c.53-7.04,.8-14.87,.8-23.51,0-25.76-2.26-47.02-6.77-63.75-6.51-24.58-17.27-36.86-32.28-36.86-7.57,0-16.21,3.19-25.9,9.56l3.98-66.34-38.65,6.97,7.77,161.38,34.27-.6Z"/>
    <polygon class="cls-3" points="395.47 556.41 428.15 558.41 432.33 422.13 394.08 426.71 395.47 556.41"/>
    <path class="cls-5" d="M334.3,384.85c3.85,.79,7.7,1.19,11.56,1.19,22.45,0,40.65-11.56,54.59-34.67l-24.11-12.36c-3.72,8.64-9.1,14.21-16.14,16.74-5.18,1.86-9.9,2.79-14.15,2.79-15.41,0-23.78-10.56-25.1-31.68l77.9-6.78c-.4-12.75-2.32-23.64-5.78-32.67-8.37-21.79-23.84-32.68-46.42-32.68-2.66,0-5.45,.14-8.37,.4-15.14,1.59-27.03,10.96-35.67,28.09-3.45,7.17-6.17,15.61-8.17,25.3-.93,5.18-1.4,10.83-1.4,16.94,0,13.68,2.46,25.3,7.37,34.87,6.91,13.41,18.2,21.59,33.87,24.5Zm8.97-102.01c1.06-.14,2.06-.2,2.99-.2,9.3,0,15.21,5.98,17.73,17.93l-39.25,4.38c1.33-13.15,7.5-20.52,18.53-22.12Z"/>
    <path class="cls-4" d="M219.34,556.41c3.85,.79,7.7,1.19,11.56,1.19,19.71,0,36.14-8.92,49.29-26.74,3.37,6.99,10.24,12.32,20.64,15.98,11.42,3.98,26.23,5.78,44.43,5.38l-1.39,10.56,38.85,4.78-1.79-87.86c-.27-13.81-3.19-25.76-8.77-35.86-8.1-14.61-20.45-21.92-37.06-21.92-15.28,0-26.7,6.64-34.27,19.92-5.45,9.17-8.77,21.12-9.96,35.87l30.68,2.59c-.13-16.47,4.85-24.83,14.94-25.1,6.51-.13,11.09,3.79,13.75,11.76,1.86,5.85,2.66,13.42,2.39,22.72-10.23-2.12-19.99-3.19-29.29-3.19-28.43,0-43.57,10.03-45.43,30.08-.08,.86-.02,1.65-.04,2.48l-16.5-8.46c-3.72,8.64-9.1,14.21-16.14,16.74-5.18,1.86-9.9,2.79-14.15,2.79-15.41,0-23.78-10.56-25.1-31.68l77.9-6.78c-.4-12.75-2.32-23.64-5.78-32.67-8.37-21.79-23.84-32.68-46.42-32.68-2.66,0-5.45,.14-8.37,.4-15.14,1.59-27.03,10.96-35.67,28.09-3.45,7.17-6.17,15.61-8.17,25.3-.93,5.18-1.4,10.83-1.4,16.94,0,13.68,2.46,25.3,7.37,34.87,6.91,13.41,18.2,21.59,33.87,24.5Zm106.19-48.82c7.3,0,15.47,.94,24.51,2.79l-1.2,17.73c-7.7,1.59-14.88,2.39-21.52,2.39-15.01,0-22.32-4.32-21.92-12.95,.26-6.64,6.97-9.97,20.12-9.97Zm-97.23-53.19c1.06-.14,2.06-.2,2.99-.2,9.3,0,15.21,5.98,17.73,17.93l-39.25,4.38c1.33-13.15,7.5-20.52,18.53-22.12Z"/>
    <path class="cls-1" d="M438.5,615.41c-8.1-14.61-20.45-21.92-37.06-21.92-15.28,0-26.7,6.64-34.27,19.92-5.45,9.17-8.77,21.12-9.96,35.87l30.68,2.59c-.13-16.47,4.85-24.83,14.94-25.1,6.51-.13,11.09,3.79,13.75,11.76,1.86,5.85,2.66,13.42,2.39,22.72-10.23-2.12-19.99-3.19-29.29-3.19-15.02,0-26.22,2.88-33.82,8.48l-31.73-2.9c1.19,6.11,1.79,12.02,1.79,17.73,0,16.07-4.98,24.24-14.94,24.5-10.76,.27-16.14-10.23-16.14-31.48,0-5.58,.33-11.03,.99-16.34l1.59-12.36,53.99,6.97,3.19-31.28-53.6-2.59,2.99-22.12-39.25-3.19,.28,13.68c-11.81-10.93-22.54-16.97-32.16-17.87-11.96-1.2-22.91,2.32-32.87,10.56-9.16,7.57-14.21,15.87-15.14,24.9-.27,2.13-.4,4.32-.4,6.58,0,21.65,9.83,36.06,29.49,43.23,7.04,2.53,12.42,6.18,16.14,10.96,3.19,4.25,4.78,8.7,4.78,13.35,0,3.45-.96,6.38-2.89,8.77-1.93,2.39-4.55,3.58-7.87,3.58-7.7-.79-11.56-6.77-11.56-17.93,0-2.39,.26-5.05,.8-7.97l-34.07,3.59c2.66,20.72,11.69,35.07,27.1,43.03,1.4,.68,2.86,1.28,4.35,1.84l-35.23,6.36,2.36,48.98c-1.22-2.45-2.56-4.8-4.15-6.94-10.1-13.68-25.84-20.52-47.22-20.52s-35.6,13.88-42.64,41.64c-2.92,11.56-4.25,25.43-3.98,41.64,.26,11.96,2.19,22.25,5.78,30.88,8.77,20.59,25.43,30.88,50.01,30.88,15.01,0,28.62-8.1,40.84-24.3,1.89-2.54,3.69-5.33,5.45-8.24l1.32,27.36,34.27-.6c-2.79-30.41-3.92-49.87-3.39-58.38,.26-3.98,1.62-7.57,4.09-10.76,2.45-3.19,5.08-4.78,7.87-4.78,4.78,0,7.7,5.05,8.77,15.14,1.59,16.07,2.19,40.91,1.79,74.51l37.66-2.59c.53-7.04,.8-14.87,.8-23.51,0-25.76-2.26-47.02-6.77-63.75-6.51-24.58-17.27-36.86-32.28-36.86-7.57,0-16.21,3.19-25.9,9.56l3.88-64.63c4.57,1.39,9.49,2.31,14.85,2.65,9.83,0,17.86-4.91,24.11-14.74,5.71-8.9,8.57-19.33,8.57-31.28,0-8.77-1.66-16.4-4.98-22.91-3.72-7.04-8.9-11.76-15.54-14.15-9.56-3.19-16.87-7.17-21.92-11.96-4.38-4.25-6.57-8.43-6.57-12.55,0-3.59,1.59-6.4,4.78-8.47,3.19-2.06,7.44-2.82,12.75-2.29,13.01,1.59,22.05,12.36,27.1,32.28l8.58-8.52,.78,38.4c.26,13.81,3.19,25.77,8.77,35.86,8.1,14.61,20.45,21.92,37.06,21.92,18.94,0,31.91-10.09,39.01-30.04,3.79,3.8,8.99,6.94,15.77,9.33,11.42,3.98,26.23,5.78,44.43,5.38l-1.39,10.56,38.85,4.78-1.79-87.86c-.27-13.81-3.19-25.76-8.77-35.86Zm-278.73,229.34c-6.91,20.72-14.94,31.15-24.11,31.28-9.3,.14-16.27-3.65-20.92-11.36-4.12-6.64-6.17-15.47-6.17-26.5,0-12.48,2.32-24.11,6.97-34.87,4.78-11.29,10.29-17.27,16.54-17.93,9.96-1.06,15.34,8.77,16.14,29.49l30.37-10.77,2.41,49.95-21.22-9.29Zm255.42-145.07c-7.7,1.59-14.88,2.39-21.52,2.39-15.01,0-22.32-4.32-21.92-12.95,.26-6.64,6.97-9.97,20.12-9.97,7.3,0,15.47,.94,24.51,2.79l-1.2,17.73Z"/>
    <path class="cls-2" d="M378.73,865.88c-14.61,0-22.12-6.84-22.51-20.52-.27-7.44,1-15.87,3.79-25.3,4.12-13.94,10.43-21.45,18.93-22.51,12.35-1.59,19.13,8.24,20.32,29.49l26.7-6.98c-1.06-10.36-3.26-19.19-6.57-26.5-8.1-17.53-21.65-26.03-40.65-25.5-14.88,.39-27.69,8.64-38.45,24.7-10.23,15.27-15.34,32.54-15.34,51.8s5.84,35.93,17.53,48.02c5.98,6.24,15.34,9.36,28.09,9.36,17.8,0,39.38-5.44,64.75-16.33l-10.96-32.68c-19,8.64-34.2,12.95-45.63,12.95Z"/>
    <path class="cls-8" d="M614.63,682.15c-3.72,8.64-9.1,14.21-16.14,16.74-5.18,1.86-9.9,2.79-14.15,2.79-15.41,0-23.78-10.56-25.1-31.68l77.9-6.78c-.4-12.75-2.32-23.64-5.78-32.67-8.37-21.79-23.84-32.68-46.42-32.68-2.66,0-5.45,.14-8.37,.4-15.14,1.59-27.03,10.96-35.67,28.09-1.1,2.28-2.09,4.72-3.04,7.25l1.25-12.23-53.6-2.59,2.99-22.12-39.25-3.19,1.79,87.86c.26,13.81,3.19,25.77,8.77,35.86,8.1,14.61,20.45,21.92,37.06,21.92,20.85,0,34.53-12.08,41.04-36.26,.07-.27,.11-.57,.18-.84,.22,.46,.38,.99,.61,1.44,6.91,13.41,18.2,21.59,33.87,24.5,3.85,.79,7.7,1.19,11.56,1.19,22.45,0,40.65-11.56,54.59-34.67l-24.11-12.36Zm-33.07-56.18c1.06-.14,2.06-.2,2.99-.2,9.3,0,15.21,5.98,17.73,17.93l-39.25,4.38c1.33-13.15,7.5-20.52,18.53-22.12Zm-71.13,55.39c0,16.07-4.98,24.24-14.94,24.5-10.76,.27-16.14-10.23-16.14-31.48,0-5.58,.33-11.03,.99-16.34l1.59-12.36,50.73,6.55c-.72,4.18-1.09,8.7-1.21,13.47l-22.83-2.09c1.19,6.11,1.79,12.02,1.79,17.73Z"/>
    <path class="cls-7" d="M175.91,518.76c-4.52-10.1-11.43-18.26-20.72-24.51,11.16-7.3,16.34-19.72,15.54-37.25,0-7.17-1.53-13.35-4.58-18.53-7.31-12.48-21.52-18.73-42.64-18.73-11.03,0-23.71,1.73-38.05,5.18v132.49l34.47-2.19-2.39-49.61c2.66-.66,5.18-1,7.57-1,17.8,0,26.7,17.67,26.7,53,0,7.7-.4,15.14-1.2,22.32l35.07-2.39c-.27-25.23-3.52-44.83-9.76-58.78Zm-52.2-37.06c-2.79,0-5.78-.33-8.97-.99l-1.59-37.66c3.05-.26,5.91-.39,8.57-.39,16.07,0,24.57,3.98,25.5,11.95,.4,18.07-7.44,27.1-23.51,27.1Z"/>
    <path class="cls-6" d="M180.1,653.47c-2.66-39.45-18.33-59.18-47.02-59.18-3.59,0-7.97,.4-13.15,1.19-11.03,1.73-19.72,9.1-26.1,22.12-5.85,11.96-8.77,26.17-8.77,42.64,0,19.26,3.85,35.4,11.56,48.42,8.77,14.61,20.65,21.52,35.66,20.72l9.96-40.44c-4.65,1.72-8.77,2.59-12.35,2.59-12.49,0-18.73-8.77-18.73-26.3,0-1.72,.06-3.25,.2-4.58l68.74-7.17Zm-56.98-32.48c1.99-1.32,4.31-2.12,6.97-2.39,11.56-.8,18.53,4.71,20.92,16.53l-36.46,4.19c.8-8.77,3.65-14.88,8.57-18.33Z"/>
    <polygon class="cls-11" points="107.97 390.22 145.23 388.83 147.22 286.02 176.11 288.02 177.9 252.95 85.26 252.16 84.66 292.2 113.75 288.22 107.97 390.22"/>
    <polygon class="cls-10" points="284.1 784.39 280.11 898.15 327.33 899.75 320.76 779.61 284.1 784.39"/>
  </g>
  <rect class="cls-12" x="799.05" y="193.45" width="66.87" height="200.69"/>
  <rect class="cls-12" x="525.62" y="821.49" width="63.16" height="202.11" transform="translate(1479.75 365.34) rotate(90)"/>
</svg>