<?xml version="1.0" encoding="UTF-8"?>
<svg id="Layer_1" data-name="Layer 1" xmlns="http://www.w3.org/2000/svg" xmlns:xlink="http://www.w3.org/1999/xlink" viewBox="0 0 1080 1080">
  <defs>
    <style>
      .cls-1 {
        fill: url(#linear-gradient);
      }

      .cls-2 {
        fill: #232323;
      }

      .cls-3 {
        fill: url(#linear-gradient-2);
      }
    </style>
    <linearGradient id="linear-gradient" x1="289.38" y1="559.05" x2="389.89" y2="559.05" gradientUnits="userSpaceOnUse">
      <stop offset="0" stop-color="#ffe000"/>
      <stop offset=".15" stop-color="#f2dc07"/>
      <stop offset=".42" stop-color="#d0d21a"/>
      <stop offset=".78" stop-color="#99c238"/>
      <stop offset="1" stop-color="#74b84e"/>
    </linearGradient>
    <linearGradient id="linear-gradient-2" x1="268.77" y1="504.27" x2="408.68" y2="504.27" xlink:href="#linear-gradient"/>
  </defs>
  <path class="cls-2" d="M397.69,598.6l-.41-58.46,36.68,21.19-1.78-25.64,24.56-1.33,2.07,63.53-38.34-17.67,.7,18.3-23.49,.07Z"/>
  <path class="cls-2" d="M464.36,535.14c8.37-1.01,16.74-.88,25.12,.41,7.29,1.09,13,3.09,17.15,6,5.16,3.63,7.71,8.58,7.63,14.86-.2,11.36-4.64,19.14-13.34,23.34-3.14,1.51-6.52,2.4-10.15,2.67-3.04,.22-5.38,.01-7.04-.63l-.41,15.93-21.34,.3,2.37-62.87Zm29.93,23.45c.12-2.1-.28-3.91-1.22-5.45-.77-1.21-1.86-2.2-3.3-2.96-1.63-.89-3.26-1.4-4.89-1.52l-.56,17.52c1.56,.25,3.14,.12,4.74-.37,3.23-1.04,4.98-3.45,5.22-7.22Z"/>
  <path class="cls-2" d="M521.3,599.86l-21.86-7.26,32.12-63.09,36.53,60.24-16.49,10.67-5.26-10.08-21.3-.52-3.74,10.04Zm17.6-23.64l-5.15-9.82-3.48,9.45,8.63,.37Z"/>
  <path class="cls-2" d="M618.72,589.71c-3.43,2.67-7.26,4.61-11.48,5.82-4.37,1.28-8.87,1.68-13.48,1.19-4.54-.49-8.82-1.79-12.82-3.89-3.85-2.07-7.16-4.73-9.93-7.96-2.82-3.28-4.87-6.93-6.15-10.93-1.33-4.12-1.77-8.36-1.3-12.71,.47-4.32,1.78-8.36,3.93-12.11,2.12-3.63,4.89-6.75,8.3-9.37,7.24-5.53,15.5-7.8,24.78-6.82,7.93,.84,14.72,3.96,20.38,9.37l-8.48,12.97c-2.37-1.85-5.09-2.94-8.15-3.26-4.1-.44-7.72,.48-10.85,2.78-3.16,2.27-4.94,5.25-5.33,8.93-.4,3.68,.7,6.96,3.3,9.85,2.62,2.91,5.96,4.59,10.04,5.04,3.65,.4,6.99-.35,10-2.22l7.26,13.34Z"/>
  <path class="cls-2" d="M665.28,600.6l-18.63-21.3,.19,15.82-20.75-1.04-1.74-58.98,21.63-2.37,.3,20.12,21.93-20.19,15.15,13.74-22.04,18.41,23.08,19.6-19.12,16.19Z"/>
  <path class="cls-2" d="M705.57,596.49l-.67-62.05,22.63,.44-1.59,61.68-20.38-.07Z"/>
  <path class="cls-2" d="M782.84,552.03l-14.56-.33-.33,45.2h-21.23l1.37-45.68-18-.41v-17.56l52.75,.59v18.19Z"/>
  <g>
    <path class="cls-2" d="M789.26,581.98l-.67-62.05,22.63,.44-1.59,61.68-20.38-.07Z"/>
    <polygon class="cls-2" points="789.51 585.92 789.64 597.32 809.57 597.39 809.57 585.92 789.51 585.92"/>
  </g>
  <g>
    <path class="cls-1" d="M389.89,528.48c0,1.72,0,3.43,0,5.15,0,.34,.01,.69,.01,1.03,0,20.04,0,40.08,0,60.11,0,.49-.01,.97-.05,1.46-.06,.66-.29,1.28-.65,1.84-.57,.91-1.42,1.39-2.45,1.56-.48,.08-.97,.11-1.45,.11-1.29,.02-2.57,.02-3.86,.02-22.7,0-45.39,0-68.09,0-1.11,0-2.23,.01-3.34,0-.46,0-.91-.04-1.37-.09-1.29-.14-2.32-.75-3.14-1.74-.24-.29-.45-.59-.66-.9-4.66-6.99-9.32-13.98-13.98-20.97-.57-.86-1.06-1.76-1.28-2.79-.14-.67-.19-1.36-.19-2.04,0-4.14,0-8.29,.01-12.43,0-.31,0-.63,0-.94,0-12.83,0-25.67,0-38.5,0-.34,.03-.68,.04-1.02,.08,0,.17,0,.25,.03,1.37,.44,2.75,.89,4.12,1.33,.24,.08,.5,.12,.74,.2,.89,.3,1.79,.53,2.65,.92,0,2.86,0,5.72,0,8.57,0,13.26,0,26.52-.01,39.79,0,1.54,.38,2.91,1.25,4.19,1.93,2.83,3.8,5.7,5.71,8.55,.16,.24,.27,.69,.64,.54,.27-.11,.11-.51,.11-.78,0-6.86,0-13.72,0-20.58,0-10.23,0-20.47,0-30.7,0-.31,0-.63,0-.94-.03-1.35-.39-2.59-1.17-3.7-.44-.63-.87-1.27-1.29-1.92-.32-.5-.71-.97-.95-1.52,.09-.14,.19-.18,.36-.13,.6,.19,1.2,.36,1.79,.55,1.49,.47,2.98,.95,4.48,1.42,.43,.14,.86,.28,1.31,.39,.55,.13,1.07,.36,1.59,.54,.06,.29-.07,.49-.13,.7-.05,.19-.09,.38-.12,.58-.09,.67-.18,1.35-.3,2.02-.13,.73,.11,.76,.57,.75,.06,0,.11,0,.17,0,3.2,0,6.4,0,9.6,0,.2,0,.42,.03,.59-.04,.42-.16,.84-.13,1.27-.13,5.74,0,11.49,0,17.23,0,.29,0,.59,.05,.85-.04,.48-.15,.96-.13,1.44-.13,5.63,0,11.26,0,16.89,0,.29,0,.59,.05,.85-.03,.53-.17,1.07-.13,1.61-.13,5.66,0,11.32,0,16.97,0,.31,0,.64,.02,.93-.07,.34-.09,.68-.1,1.02-.1,2.86,0,5.72,0,8.57,0,.29,0,.57,.02,.86,.03Zm-9.56,31.5c-.09-1.64-.11-3.47-.26-5.3-.15-1.85-.34-3.7-.6-5.54-.38-2.69-.88-5.35-1.48-8-.83-3.71-1.84-7.37-3.03-10.97-.29-.89-.31-.9-1.21-.66-6.29,1.65-12.59,3.31-18.88,4.97-.08,.02-.17,.04-.25,.07-.43,.14-.51,.28-.4,.69,.06,.22,.14,.44,.21,.65,.23,.68,.46,1.35,.68,2.03,1.81,5.61,3.21,11.31,3.9,17.18,.36,3.08,.45,6.16,.1,9.24-.22,1.98-.85,3.84-1.88,5.56-.75,1.25-1.75,2.24-3.01,2.99-1.58,.95-3.3,1.43-5.13,1.46-2.49,.03-4.57-.89-6.15-2.84-.52-.65-.96-1.35-1.31-2.1-1.03-2.19-1.42-4.51-1.51-6.9-.1-2.69,.13-5.37,.54-8.03,.48-3.08,1.22-6.1,2.12-9.08,1.03-3.42,2.26-6.77,3.47-10.13,.07-.19,.14-.37,.18-.57,.07-.36-.06-.53-.44-.57-.6-.06-1.2-.1-1.79-.15-3.51-.25-7.01-.5-10.52-.75-.97-.07-1.94-.14-2.91-.21-1.8-.13-3.59-.27-5.39-.4-.11,0-.23,0-.34,0-.22,.01-.38,.12-.46,.33-.04,.1-.07,.22-.11,.32-1.86,5.98-3.4,12.03-4.32,18.23-.47,3.2-.79,6.41-.85,9.64-.09,4.25,.27,8.45,1.24,12.59,1,4.28,2.73,8.22,5.29,11.8,2.97,4.14,6.75,7.27,11.48,9.21,2.39,.98,4.88,1.6,7.44,1.95,1.56,.21,3.13,.33,4.7,.29,3.02-.08,5.96-.61,8.84-1.49,7.67-2.34,13.43-7.04,17.29-14.06,1.47-2.67,2.53-5.5,3.27-8.44,1.07-4.21,1.44-8.5,1.49-13.01Z"/>
    <path class="cls-3" d="M297.19,520.81c-.85-.39-1.76-.63-2.65-.92-.24-.08-.49-.12-.74-.2-1.37-.44-2.75-.89-4.12-1.33-.08-.03-.17-.02-.25-.03-2.42-2.89-4.84-5.79-7.26-8.68-4.21-5.05-8.42-10.09-12.63-15.14-.27-.32-.59-.62-.77-1.01,.3-.12,.54,.02,.78,.09,5.66,1.59,11.32,3.18,16.98,4.76,1.24,.35,2.47,.7,3.71,1.04,.13,.04,.27,.11,.42-.01-.02-.28-.17-.52-.28-.78-2.45-6-4.89-12-7.34-18-.12-.29-.22-.59-.31-.88-.04-.13,.05-.22,.16-.26,.08-.03,.17-.04,.25-.04,.26,0,.51,0,.77,0,26.55,0,53.1,0,79.65,0,.23,0,.46,.01,.69,0,.47-.02,.73,.19,.9,.62,.56,1.41,1.14,2.8,1.71,4.2,1.98,4.84,3.95,9.67,5.93,14.51,.1,.24,.19,.48,.27,.72,.17,.52,.22,.55,.69,.25,3-1.94,6-3.87,9-5.81,2.26-1.46,4.51-2.92,6.77-4.37,.24-.15,.47-.33,.74-.42,.22-.07,.4-.02,.54,.14,.15,.17,.28,.36,.41,.55,5.67,7.64,11.34,15.28,17,22.93,.05,.07,.1,.14,.15,.21,.45,.62,.43,.79-.25,1.2-2.25,1.35-4.51,2.7-6.77,4.04-3.36,2-6.72,4.01-10.08,6.01-.2,.12-.39,.24-.58,.37-.03,.02-.06,.1-.05,.14,0,.04,.06,.1,.11,.1,2.24,.47,4.39,1.23,6.6,1.84,1.62,.44,3.23,.94,4.85,1.41,.13,.04,.26,.09,.49,.17-.35,.17-.63,.12-.89,.13-3.43,.04-6.86,.07-10.29,.11-.54,0-1.09,.02-1.63,.03-.29,0-.57-.03-.86-.03-2.86,0-5.72,0-8.57,0-.34,0-.68,0-1.02,.1-.29,.08-.62,.07-.93,.07-5.66,0-11.32,0-16.97,0-.54,0-1.08-.04-1.61,.13-.26,.08-.57,.03-.85,.03-5.63,0-11.26,0-16.89,0-.48,0-.96-.02-1.44,.13-.26,.08-.57,.04-.85,.04-5.74,0-11.49,0-17.23,0-.43,0-.85-.03-1.27,.13-.18,.07-.4,.04-.59,.04-3.2,0-6.4,0-9.6,0-.06,0-.11,0-.17,0-.46,.01-.7-.02-.57-.75,.12-.67,.21-1.34,.3-2.02,.03-.2,.07-.39,.12-.58,.06-.21,.19-.42,.13-.7-.51-.18-1.04-.41-1.59-.54-.45-.11-.88-.25-1.31-.39-1.49-.47-2.98-.95-4.48-1.42-.6-.19-1.2-.36-1.79-.55-.16-.05-.27-.01-.36,.13-.22-.22-.46-.39-.78-.47-.85-.24-1.68-.52-2.52-.78-.32-.1-.63-.25-.98-.25Zm91.7,3.83c.06-.13,.03-.23-.03-.33-.18-.29-.34-.59-.54-.88-1.09-1.61-2.21-3.19-3.27-4.82-3.75-5.78-7.62-11.47-11.47-17.18-.11-.17-.24-.32-.34-.5-.22-.41-.57-.53-1-.53-.4,0-.8,0-1.2,0-25.93,0-51.86,0-77.79,0-.29,0-.57,0-.86,0-.08,0-.17,.01-.25,.03-.11,.02-.13,.13-.1,.19,.06,.13,.15,.24,.24,.35,.91,1.14,1.82,2.28,2.74,3.41,2.89,3.58,5.79,7.16,8.67,10.75,2.47,3.08,4.92,6.16,7.36,9.27,.4,.5,.88,.7,1.47,.74,.17,.01,.34,0,.51-.02,.63-.03,1.26-.09,1.88-.09,12.21-.04,24.41-.08,36.62-.12,3.49-.01,6.97-.03,10.46-.05,7.09-.04,14.18-.09,21.27-.13,1.6-.01,3.2-.01,4.8-.02,.28,0,.57,.03,.83-.07Z"/>
  </g>
</svg>