<?xml version="1.0" encoding="UTF-8"?>
<svg id="Layer_1" data-name="Layer 1" xmlns="http://www.w3.org/2000/svg" viewBox="0 0 1080 1080">
  <defs>
    <style>
      .cls-1 {
        fill: #fff;
      }

      .cls-2 {
        fill: #ff2196;
      }

      .cls-3 {
        fill: #5827b2;
      }
    </style>
  </defs>
  <g>
    <path class="cls-1" d="M346.56,532.73c4.3,4.75,6.44,11.42,6.44,20.01v36.41h-15.83v-34.6c0-4.97-1.28-8.84-3.84-11.59-2.56-2.75-6.07-4.13-10.51-4.13s-8.14,1.47-10.85,4.41c-2.71,2.94-4.07,7.16-4.07,12.66v33.24h-15.94v-62.64h15.94v12.55c1.66-4.22,4.39-7.52,8.2-9.89,3.81-2.37,8.2-3.56,13.17-3.56,7.24,0,13,2.37,17.3,7.12Z"/>
    <path class="cls-1" d="M360.46,502.26c1.81-1.62,4.18-2.43,7.12-2.43s5.31,.81,7.12,2.43c1.81,1.62,2.71,3.71,2.71,6.28s-.9,4.54-2.71,6.16c-1.81,1.62-4.18,2.43-7.12,2.43s-5.31-.81-7.12-2.43c-1.81-1.62-2.71-3.67-2.71-6.16s.9-4.65,2.71-6.28Zm15.04,24.25v62.64h-15.94v-62.64h15.94Z"/>
    <path class="cls-1" d="M419.14,589.15l-20.69-27.36v27.36h-15.94v-83.67h15.94v47.03l20.58-26h18.88l-26.34,31.21,27.02,31.43h-19.45Z"/>
    <path class="cls-1" d="M497.16,560.88h-45.9c.23,5.58,1.73,9.69,4.52,12.32,2.79,2.64,6.26,3.96,10.4,3.96,3.69,0,6.76-.9,9.21-2.71,2.45-1.81,4.01-4.26,4.69-7.35h16.85c-.83,4.37-2.6,8.29-5.31,11.76-2.71,3.47-6.2,6.18-10.46,8.14-4.26,1.96-8.99,2.94-14.19,2.94-6.11,0-11.53-1.3-16.28-3.9-4.75-2.6-8.44-6.31-11.08-11.14-2.64-4.82-3.96-10.51-3.96-17.07s1.32-12.27,3.96-17.13c2.64-4.86,6.33-8.57,11.08-11.14,4.75-2.56,10.18-3.84,16.28-3.84s11.59,1.28,16.22,3.84c4.64,2.56,8.21,6.09,10.74,10.57,2.52,4.49,3.79,9.59,3.79,15.32,0,1.58-.19,3.39-.57,5.43Zm-19.5-18.66c-2.9-2.64-6.46-3.96-10.68-3.96s-7.91,1.32-10.85,3.96c-2.94,2.64-4.56,6.52-4.86,11.65h30.41c.23-5.13-1.11-9.01-4.01-11.65Z"/>
    <path class="cls-1" d="M557.7,554.83c2.9,3.58,4.35,7.78,4.35,12.61,0,6.71-2.24,12-6.73,15.89-4.49,3.88-10.99,5.82-19.5,5.82h-34.26v-79.82h33.58c8.06,0,14.26,1.77,18.6,5.31,4.33,3.54,6.5,8.52,6.5,14.92,0,4.97-1.3,9.05-3.9,12.21-2.6,3.17-6.01,5.24-10.23,6.22,4.82,.98,8.69,3.26,11.59,6.84Zm-40.19-12.04h14.36c3.99,0,7.03-.89,9.1-2.66,2.07-1.77,3.11-4.31,3.11-7.63s-1.02-5.88-3.05-7.69c-2.03-1.81-5.16-2.71-9.38-2.71h-14.13v20.69Zm24.87,30.58c2.26-1.85,3.39-4.54,3.39-8.08s-1.15-6.28-3.45-8.2c-2.3-1.92-5.56-2.88-9.78-2.88h-15.04v21.93h15.15c4.22,0,7.46-.92,9.72-2.77Z"/>
    <path class="cls-1" d="M590.99,529.05c3.84-2.3,8.14-3.45,12.89-3.45v17.07h-4.64c-11.68,0-17.53,5.43-17.53,16.28v30.19h-15.94v-62.64h15.94v11.98c2.34-3.99,5.43-7.14,9.27-9.44Z"/>
    <path class="cls-1" d="M643.34,529.45c3.77,2.49,6.44,5.84,8.03,10.06v-13h15.83v62.64h-15.83v-13.11c-1.58,4.22-4.26,7.59-8.03,10.12-3.77,2.53-8.29,3.79-13.57,3.79s-10.03-1.28-14.25-3.84c-4.22-2.56-7.52-6.28-9.89-11.14-2.37-4.86-3.56-10.57-3.56-17.13s1.19-12.27,3.56-17.13c2.37-4.86,5.67-8.57,9.89-11.14,4.22-2.56,8.97-3.84,14.25-3.84s9.8,1.24,13.57,3.73Zm-20.58,15.04c-3.02,3.24-4.52,7.69-4.52,13.34s1.51,10.08,4.52,13.28c3.01,3.21,7.01,4.81,11.98,4.81s8.8-1.64,11.93-4.92c3.13-3.28,4.69-7.67,4.69-13.17s-1.56-10.01-4.69-13.28c-3.13-3.28-7.11-4.92-11.93-4.92s-8.97,1.62-11.98,4.86Z"/>
    <path class="cls-1" d="M728.82,532.73c4.3,4.75,6.44,11.42,6.44,20.01v36.41h-15.83v-34.6c0-4.97-1.28-8.84-3.84-11.59-2.56-2.75-6.07-4.13-10.51-4.13s-8.14,1.47-10.85,4.41c-2.71,2.94-4.07,7.16-4.07,12.66v33.24h-15.94v-62.64h15.94v12.55c1.66-4.22,4.39-7.52,8.2-9.89,3.81-2.37,8.2-3.56,13.17-3.56,7.24,0,13,2.37,17.3,7.12Z"/>
    <path class="cls-1" d="M779.86,529.45c3.73,2.49,6.43,5.84,8.08,10.06v-34.03h15.83v83.67h-15.83v-13.11c-1.66,4.22-4.35,7.59-8.08,10.12-3.73,2.53-8.24,3.79-13.51,3.79s-10.03-1.28-14.25-3.84c-4.22-2.56-7.52-6.28-9.89-11.14-2.37-4.86-3.56-10.57-3.56-17.13s1.19-12.27,3.56-17.13c2.37-4.86,5.67-8.57,9.89-11.14,4.22-2.56,8.97-3.84,14.25-3.84s9.78,1.24,13.51,3.73Zm-20.52,15.04c-3.02,3.24-4.52,7.69-4.52,13.34s1.51,10.08,4.52,13.28c3.01,3.21,7.01,4.81,11.98,4.81s8.8-1.64,11.93-4.92c3.13-3.28,4.69-7.67,4.69-13.17s-1.56-10.01-4.69-13.28c-3.13-3.28-7.11-4.92-11.93-4.92s-8.97,1.62-11.98,4.86Z"/>
    <path class="cls-1" d="M261.54,510.23h-18.2l-23.41,62.85h28.42s20.1,0,20.1,0l5.54,16.05h16.85l-29.28-78.92Zm-20.92,50.77l11.76-33.69,11.76,33.69h-23.52Z"/>
    <g>
      <path class="cls-1" d="M840.3,539.62c2.11,1.81,3.47,4.22,4.07,7.24h14.92c-.59-3.36-1.67-6.35-3.22-9.01h-18.72c1.09,.44,2.08,1.02,2.95,1.77Z"/>
      <path class="cls-1" d="M849.17,556.19c-2.98-1.17-6.84-2.28-11.59-3.34-3.39-.83-5.99-1.54-7.8-2.15-1.81-.6-3.32-1.43-4.52-2.49-1.21-1.05-1.81-2.45-1.81-4.18,0-2.19,.75-3.92,2.26-5.2,.45-.39,.97-.71,1.54-.98h-17.19c-.71,1.89-1.08,3.94-1.08,6.18,0,4.22,1.03,7.54,3.11,9.95,2.07,2.41,4.56,4.17,7.46,5.26,2.9,1.09,6.69,2.17,11.36,3.22,3.39,.83,6.01,1.55,7.86,2.15,1.84,.6,3.39,1.47,4.64,2.6,1.24,1.13,1.86,2.6,1.86,4.41,0,2.11-.72,3.83-2.15,5.14-1.43,1.32-3.51,1.98-6.22,1.98-3.77,0-6.82-.88-9.16-2.66-2.34-1.77-3.69-4.2-4.07-7.29h-15.26c1.05,6.78,4.03,12,8.93,15.66,4.9,3.66,11.42,5.48,19.56,5.48,7.08,0,12.72-1.66,16.9-4.97,4.18-3.32,6.28-7.65,6.28-13,0-4.3-1.07-7.71-3.22-10.23-2.15-2.52-4.71-4.37-7.69-5.54Z"/>
    </g>
  </g>
  <rect class="cls-2" x="219.92" y="576.56" width="34.47" height="12.58"/>
  <path class="cls-3" d="M822.86,521.78h20.19c6.94,0,12.58,5.64,12.58,12.58h-45.36c0-6.94,5.64-12.58,12.58-12.58Z"/>
</svg>